<svg xmlns="http://www.w3.org/2000/svg" xmlns:xlink="http://www.w3.org/1999/xlink" viewBox="0 0 337.02 499.49"><defs><style>.cls-1,.cls-2,.cls-3,.cls-4{opacity:0.5;}.cls-1{fill:url(#Nepojmenovaný_přechod_7);}.cls-2{fill:url(#Nepojmenovaný_přechod_7-2);}.cls-3{fill:url(#Nepojmenovaný_přechod_7-3);}.cls-4{fill:url(#Nepojmenovaný_přechod_7-4);}.cls-5{fill:#fff;}.cls-6{fill:url(#Nepojmenovaný_přechod_7-5);}.cls-7{fill:url(#Nové_políčko_přechodu_1);}.cls-8{fill:url(#Nové_políčko_přechodu_1-2);}.cls-9{fill:url(#Nové_políčko_přechodu_1-3);}.cls-10{fill:url(#Nepojmenovaný_přechod_7-6);}.cls-11{fill:url(#Nepojmenovaný_přechod_7-7);}.cls-12{fill:url(#Nepojmenovaný_přechod_7-8);}.cls-13{fill:url(#Nepojmenovaný_přechod_7-9);}.cls-14{fill:url(#Nové_políčko_přechodu_1-4);}.cls-15{fill:url(#Nové_políčko_přechodu_1-5);}.cls-16{fill:url(#Nové_políčko_přechodu_2);}.cls-17,.cls-20,.cls-23,.cls-26,.cls-28{fill:none;stroke-miterlimit:10;stroke-width:3px;}.cls-17{stroke:url(#Nové_políčko_přechodu_1-6);}.cls-18{fill:url(#Nové_políčko_přechodu_1-7);}.cls-19{fill:url(#Nové_políčko_přechodu_1-8);}.cls-20{stroke:url(#Nové_políčko_přechodu_1-9);}.cls-21{fill:url(#Nové_políčko_přechodu_1-10);}.cls-22{fill:url(#Nové_políčko_přechodu_1-11);}.cls-23{stroke:url(#Nové_políčko_přechodu_1-12);}.cls-24{fill:url(#Nové_políčko_přechodu_1-13);}.cls-25{fill:url(#Nové_políčko_přechodu_1-14);}.cls-26{stroke:url(#Nové_políčko_přechodu_3);}.cls-27{fill:url(#Nové_políčko_přechodu_3-2);}.cls-28{stroke:url(#Nové_políčko_přechodu_3-3);}.cls-29{fill:url(#Nové_políčko_přechodu_3-4);}.cls-30{fill:url(#Nové_políčko_přechodu_3-5);}.cls-31{fill:url(#Nepojmenovaný_přechod_7-10);}.cls-32{fill:url(#Nové_políčko_přechodu_3-6);}.cls-33{fill:url(#Nové_políčko_přechodu_1-15);}</style><linearGradient id="Nepojmenovaný_přechod_7" x1="100.43" y1="186.36" x2="130.86" y2="216.79" gradientUnits="userSpaceOnUse"><stop offset="0" stop-color="#f6f6f6"/><stop offset="1" stop-color="#d9d9d9"/></linearGradient><linearGradient id="Nepojmenovaný_přechod_7-2" x1="92.49" y1="216.06" x2="148.94" y2="272.5" xlink:href="#Nepojmenovaný_přechod_7"/><linearGradient id="Nepojmenovaný_přechod_7-3" x1="152.7" y1="212.84" x2="228.16" y2="288.3" xlink:href="#Nepojmenovaný_přechod_7"/><linearGradient id="Nepojmenovaný_přechod_7-4" x1="190.65" y1="189.98" x2="247.09" y2="246.42" xlink:href="#Nepojmenovaný_přechod_7"/><linearGradient id="Nepojmenovaný_přechod_7-5" x1="148.48" y1="417.92" x2="197.31" y2="466.76" xlink:href="#Nepojmenovaný_přechod_7"/><linearGradient id="Nové_políčko_přechodu_1" x1="164.61" y1="433.28" x2="183.12" y2="451.78" gradientUnits="userSpaceOnUse"><stop offset="0" stop-color="#4570b4"/><stop offset="1" stop-color="#009de0"/></linearGradient><linearGradient id="Nové_políčko_přechodu_1-2" x1="170.51" y1="448.6" x2="177.22" y2="455.31" xlink:href="#Nové_políčko_přechodu_1"/><linearGradient id="Nové_políčko_přechodu_1-3" x1="166.05" y1="435.28" x2="180.54" y2="449.77" xlink:href="#Nové_políčko_přechodu_1"/><linearGradient id="Nepojmenovaný_přechod_7-6" x1="267.32" y1="417.92" x2="316.15" y2="466.76" xlink:href="#Nepojmenovaný_přechod_7"/><linearGradient id="Nepojmenovaný_přechod_7-7" x1="122.17" y1="196.94" x2="206.38" y2="281.15" xlink:href="#Nepojmenovaný_přechod_7"/><linearGradient id="Nepojmenovaný_přechod_7-8" x1="30.31" y1="418.3" x2="79.14" y2="467.14" xlink:href="#Nepojmenovaný_přechod_7"/><linearGradient id="Nepojmenovaný_přechod_7-9" x1="218.98" y1="4.15" x2="267.82" y2="52.99" xlink:href="#Nepojmenovaný_přechod_7"/><linearGradient id="Nové_políčko_přechodu_1-4" x1="45.8" y1="434.02" x2="64.8" y2="453.01" xlink:href="#Nové_políčko_přechodu_1"/><linearGradient id="Nové_políčko_přechodu_1-5" x1="49.08" y1="437.3" x2="61.51" y2="449.73" xlink:href="#Nové_políčko_přechodu_1"/><linearGradient id="Nové_políčko_přechodu_2" x1="146.99" y1="223.9" x2="182.7" y2="259.62" gradientUnits="userSpaceOnUse"><stop offset="0" stop-color="#5a287f"/><stop offset="1" stop-color="#b2387b"/></linearGradient><linearGradient id="Nové_políčko_přechodu_1-6" x1="153.79" y1="375.78" x2="64.76" y2="375.78" xlink:href="#Nové_políčko_přechodu_1"/><linearGradient id="Nové_políčko_přechodu_1-7" x1="153.22" y1="350.89" x2="64.19" y2="350.89" xlink:href="#Nové_políčko_přechodu_1"/><linearGradient id="Nové_políčko_přechodu_1-8" x1="153.22" y1="401.46" x2="64.19" y2="401.46" xlink:href="#Nové_políčko_přechodu_1"/><linearGradient id="Nové_políčko_přechodu_1-9" x1="174.53" y1="346.87" x2="174.53" y2="404.86" xlink:href="#Nové_políčko_přechodu_1"/><linearGradient id="Nové_políčko_přechodu_1-10" x1="173.7" y1="346.87" x2="173.7" y2="404.86" xlink:href="#Nové_políčko_přechodu_1"/><linearGradient id="Nové_políčko_přechodu_1-11" x1="173.38" y1="346.87" x2="173.38" y2="404.86" xlink:href="#Nové_políčko_přechodu_1"/><linearGradient id="Nové_políčko_přechodu_1-12" x1="196.16" y1="376.38" x2="294.34" y2="376.38" xlink:href="#Nové_políčko_přechodu_1"/><linearGradient id="Nové_políčko_přechodu_1-13" x1="195.59" y1="350.51" x2="293.77" y2="350.51" xlink:href="#Nové_políčko_přechodu_1"/><linearGradient id="Nové_políčko_přechodu_1-14" x1="195.59" y1="403.03" x2="293.77" y2="403.03" xlink:href="#Nové_políčko_přechodu_1"/><linearGradient id="Nové_políčko_přechodu_3" x1="206.69" y1="184.41" x2="206.69" y2="91.33" gradientUnits="userSpaceOnUse"><stop offset="0" stop-color="#4d8c3f"/><stop offset="1" stop-color="#a2c037"/></linearGradient><linearGradient id="Nové_políčko_přechodu_3-2" x1="170.28" y1="184.41" x2="170.28" y2="91.33" xlink:href="#Nové_políčko_přechodu_3"/><linearGradient id="Nové_políčko_přechodu_3-3" x1="130.14" y1="184.41" x2="130.14" y2="91.33" xlink:href="#Nové_políčko_přechodu_3"/><linearGradient id="Nové_políčko_přechodu_3-4" x1="158.25" y1="184.41" x2="158.25" y2="91.33" xlink:href="#Nové_políčko_přechodu_3"/><linearGradient id="Nové_políčko_přechodu_3-5" x1="235.7" y1="19.92" x2="253" y2="37.22" xlink:href="#Nové_políčko_přechodu_3"/><linearGradient id="Nepojmenovaný_přechod_7-10" x1="76.43" y1="4.15" x2="125.27" y2="52.99" xlink:href="#Nepojmenovaný_přechod_7"/><linearGradient id="Nové_políčko_přechodu_3-6" x1="93.15" y1="19.92" x2="110.45" y2="37.22" xlink:href="#Nové_políčko_přechodu_3"/><linearGradient id="Nové_políčko_přechodu_1-15" x1="282.73" y1="435.65" x2="301.67" y2="454.59" xlink:href="#Nové_políčko_přechodu_1"/></defs><title>DPSimpleDatový zdroj 9</title><g id="Vrstva_2" data-name="Vrstva 2"><g id="Vrstva_1-2" data-name="Vrstva 1"><rect class="cls-1" x="96.28" y="182.21" width="38.73" height="38.73" rx="14.17"/><rect class="cls-2" x="88.34" y="211.9" width="64.75" height="64.75" rx="14.17"/><rect class="cls-3" x="148.55" y="208.69" width="83.76" height="83.76" rx="14.17"/><rect class="cls-4" x="186.5" y="185.82" width="64.75" height="64.75" rx="14.17"/><path class="cls-5" d="M140.7,488.89a4.29,4.29,0,0,0-.33-.85,2.79,2.79,0,0,0-.54-.68,2.47,2.47,0,0,0-.78-.44,3.12,3.12,0,0,0-1-.16,3,3,0,0,0-1.48.35,2.8,2.8,0,0,0-1,.92,4.09,4.09,0,0,0-.58,1.31,6,6,0,0,0,0,3,4.15,4.15,0,0,0,.58,1.32,2.8,2.8,0,0,0,1,.92,3,3,0,0,0,1.48.34,2.67,2.67,0,0,0,1.1-.21,2.53,2.53,0,0,0,.83-.6,2.92,2.92,0,0,0,.54-.9,4.23,4.23,0,0,0,.25-1.09h1.83a4.94,4.94,0,0,1-.41,1.75,4.16,4.16,0,0,1-2.36,2.27,4.9,4.9,0,0,1-1.78.31,5,5,0,0,1-2.16-.44,4.72,4.72,0,0,1-1.61-1.21,5.29,5.29,0,0,1-1-1.78,6.51,6.51,0,0,1-.35-2.18,6.44,6.44,0,0,1,.35-2.16,5.29,5.29,0,0,1,1-1.78,4.87,4.87,0,0,1,1.61-1.22,5,5,0,0,1,2.16-.45,5.85,5.85,0,0,1,1.69.25,4.52,4.52,0,0,1,1.4.72,3.76,3.76,0,0,1,1,1.15,4,4,0,0,1,.46,1.54Z" transform="translate(-0.57)"/><path class="cls-5" d="M144.1,485.49h1.71V496.2H144.1Z" transform="translate(-0.57)"/><path class="cls-5" d="M147.71,485.49h1.71v1.62h-1.71Zm0,2.95h1.71v7.76h-1.71Z" transform="translate(-0.57)"/><path class="cls-5" d="M152.62,492.76a2.82,2.82,0,0,0,.13.87,2.08,2.08,0,0,0,.38.74,1.76,1.76,0,0,0,.64.5,2.1,2.1,0,0,0,.94.19,2.05,2.05,0,0,0,1.2-.32,1.9,1.9,0,0,0,.68-1h1.62a3.19,3.19,0,0,1-.46,1.12,3.52,3.52,0,0,1-.79.84,3.79,3.79,0,0,1-1.05.51,4.35,4.35,0,0,1-1.2.17,4.12,4.12,0,0,1-1.63-.3,3.38,3.38,0,0,1-1.19-.84,3.55,3.55,0,0,1-.73-1.29,5.1,5.1,0,0,1-.25-1.65,4.83,4.83,0,0,1,.26-1.57,4.18,4.18,0,0,1,.75-1.3,3.5,3.5,0,0,1,2.74-1.23,3.4,3.4,0,0,1,1.64.39,3.5,3.5,0,0,1,1.21,1,4.16,4.16,0,0,1,.7,1.45,4.49,4.49,0,0,1,.11,1.68Zm4-1.12a2.94,2.94,0,0,0-.17-.78,2.2,2.2,0,0,0-.39-.65,1.89,1.89,0,0,0-.6-.45,1.73,1.73,0,0,0-.79-.18,2.18,2.18,0,0,0-.82.16,2,2,0,0,0-.63.44,2.27,2.27,0,0,0-.42.65,2.39,2.39,0,0,0-.17.81Z" transform="translate(-0.57)"/><path class="cls-5" d="M159.62,488.44h1.62v1.14l0,0a3,3,0,0,1,1-1,2.79,2.79,0,0,1,1.4-.37,2.9,2.9,0,0,1,2,.66,2.52,2.52,0,0,1,.73,2v5.33h-1.71v-4.88a2.07,2.07,0,0,0-.39-1.32,1.39,1.39,0,0,0-1.12-.42,1.94,1.94,0,0,0-.78.16,1.72,1.72,0,0,0-.59.44,2,2,0,0,0-.37.65,2.3,2.3,0,0,0-.14.79v4.58h-1.71Z" transform="translate(-0.57)"/><path class="cls-5" d="M167.46,488.44h1.29v-2.32h1.71v2.32H172v1.28h-1.54v4.14a3.17,3.17,0,0,0,0,.46.8.8,0,0,0,.1.33.58.58,0,0,0,.25.21,1.36,1.36,0,0,0,.45.06h.36l.36-.06v1.32l-.55.06a5.25,5.25,0,0,1-.56,0,4.05,4.05,0,0,1-1.09-.12,1.44,1.44,0,0,1-.64-.38,1.27,1.27,0,0,1-.32-.62,4.37,4.37,0,0,1-.09-.86v-4.57h-1.29Z" transform="translate(-0.57)"/><path class="cls-5" d="M177.64,485.49h4.73a4.44,4.44,0,0,1,1.85.33,2.78,2.78,0,0,1,1.11.82,2.89,2.89,0,0,1,.54,1.08,4.24,4.24,0,0,1,0,2.16,2.93,2.93,0,0,1-.54,1.07,2.78,2.78,0,0,1-1.11.82,4.62,4.62,0,0,1-1.85.32h-2.86v4.11h-1.87Zm1.87,5.07h2.75a2.54,2.54,0,0,0,.65-.09,2,2,0,0,0,.6-.29,1.48,1.48,0,0,0,.45-.54,1.82,1.82,0,0,0,.17-.85,2.4,2.4,0,0,0-.14-.87,1.4,1.4,0,0,0-1-.83,3.23,3.23,0,0,0-.71-.07h-2.78Z" transform="translate(-0.57)"/><path class="cls-5" d="M193.9,494.47a1,1,0,0,0,.08.45.35.35,0,0,0,.32.14h.19l.23,0v1.18a1.3,1.3,0,0,1-.23.07l-.29.07-.3,0-.26,0a1.65,1.65,0,0,1-.87-.21,1,1,0,0,1-.44-.74,3.08,3.08,0,0,1-1.26.72,4.9,4.9,0,0,1-1.43.23,3.79,3.79,0,0,1-1-.14,2.76,2.76,0,0,1-.84-.42,2,2,0,0,1-.59-.71,2.63,2.63,0,0,1,.05-2.17,1.86,1.86,0,0,1,.69-.7,3.15,3.15,0,0,1,1-.37c.35-.07.71-.13,1.07-.17s.61-.1.88-.13a3.89,3.89,0,0,0,.75-.13,1.24,1.24,0,0,0,.51-.27.81.81,0,0,0,.18-.57.91.91,0,0,0-.15-.54,1.2,1.2,0,0,0-.39-.32,2.1,2.1,0,0,0-.52-.15,5.29,5.29,0,0,0-.54,0,2.17,2.17,0,0,0-1.19.3,1.17,1.17,0,0,0-.52.93h-1.71a2.43,2.43,0,0,1,1.16-2,3.28,3.28,0,0,1,1.11-.42,6.46,6.46,0,0,1,1.25-.12,5.35,5.35,0,0,1,1.13.12,3.26,3.26,0,0,1,1,.39,2.26,2.26,0,0,1,.71.7,1.92,1.92,0,0,1,.27,1Zm-1.71-2.16a2,2,0,0,1-1,.31c-.38,0-.76.09-1.14.16a3.16,3.16,0,0,0-.53.13,1.51,1.51,0,0,0-.44.22.89.89,0,0,0-.31.38,1.19,1.19,0,0,0-.11.56.71.71,0,0,0,.16.48,1.23,1.23,0,0,0,.4.31,1.9,1.9,0,0,0,.51.15,3.13,3.13,0,0,0,.5.05,2.69,2.69,0,0,0,.61-.08,2.13,2.13,0,0,0,.63-.25,1.65,1.65,0,0,0,.49-.46,1.21,1.21,0,0,0,.19-.68Z" transform="translate(-0.57)"/><path class="cls-5" d="M195.75,488.44h1.61v1.14l0,0a2.93,2.93,0,0,1,1-1,2.72,2.72,0,0,1,1.39-.37,2.9,2.9,0,0,1,2,.66,2.52,2.52,0,0,1,.73,2v5.33h-1.71v-4.88a2.14,2.14,0,0,0-.38-1.32,1.43,1.43,0,0,0-1.13-.42,1.94,1.94,0,0,0-.78.16,1.72,1.72,0,0,0-.59.44,2,2,0,0,0-.37.65,2.3,2.3,0,0,0-.13.79v4.58h-1.71Z" transform="translate(-0.57)"/><path class="cls-5" d="M205.69,492.76a2.82,2.82,0,0,0,.13.87,2.08,2.08,0,0,0,.38.74,1.76,1.76,0,0,0,.64.5,2.06,2.06,0,0,0,.93.19,2.09,2.09,0,0,0,1.21-.32,1.9,1.9,0,0,0,.68-1h1.62a3.19,3.19,0,0,1-.46,1.12,3.37,3.37,0,0,1-.8.84,3.6,3.6,0,0,1-1,.51,4.37,4.37,0,0,1-1.21.17,4.11,4.11,0,0,1-1.62-.3,3.38,3.38,0,0,1-1.19-.84,3.55,3.55,0,0,1-.73-1.29,5.1,5.1,0,0,1-.25-1.65,4.83,4.83,0,0,1,.26-1.57,4.18,4.18,0,0,1,.75-1.3,3.5,3.5,0,0,1,2.74-1.23,3.4,3.4,0,0,1,1.64.39,3.5,3.5,0,0,1,1.21,1,4.16,4.16,0,0,1,.7,1.45,4.49,4.49,0,0,1,.11,1.68Zm4-1.12a2.94,2.94,0,0,0-.17-.78,2.2,2.2,0,0,0-.39-.65,1.89,1.89,0,0,0-.6-.45,1.73,1.73,0,0,0-.79-.18,2.18,2.18,0,0,0-.82.16,2,2,0,0,0-.63.44,2.27,2.27,0,0,0-.42.65,2.39,2.39,0,0,0-.17.81Z" transform="translate(-0.57)"/><path class="cls-5" d="M212.74,485.49h1.71V496.2h-1.71Z" transform="translate(-0.57)"/><rect class="cls-6" x="144.33" y="413.77" width="57.14" height="57.14" rx="14.17"/><path class="cls-7" d="M183.68,434.8H164.05a2.32,2.32,0,0,0-2.32,2.32v10.81a2.33,2.33,0,0,0,2.32,2.33h19.64a2.33,2.33,0,0,0,2.32-2.33V437.12A2.33,2.33,0,0,0,183.68,434.8Zm.93,13.13h0a.92.92,0,0,1-.92.92H164.05a.92.92,0,0,1-.92-.92V437.12a.92.92,0,0,1,.92-.91h19.64a.92.92,0,0,1,.92.91Z" transform="translate(-0.57)"/><path class="cls-8" d="M179.58,451.25H168.15a.71.71,0,1,0,0,1.41h11.43a.71.71,0,1,0,0-1.41Z" transform="translate(-0.57)"/><rect class="cls-9" x="163.66" y="437.31" width="19.26" height="10.43" rx="0.6"/><path class="cls-5" d="M248.13,485.71h5.21a3.73,3.73,0,0,1,2.31.66,2.67,2.67,0,0,1,.47,3.38,2.48,2.48,0,0,1-1.13.89v0a2.36,2.36,0,0,1,1.5.94,3.1,3.1,0,0,1,.51,1.82,3.06,3.06,0,0,1-.23,1.18,2.4,2.4,0,0,1-.7.95,3.74,3.74,0,0,1-1.23.63,6.28,6.28,0,0,1-1.79.23h-4.92Zm1.88,4.48h3.06a1.64,1.64,0,0,0,1.12-.38,1.35,1.35,0,0,0,.45-1.1,1.4,1.4,0,0,0-.4-1.14,1.81,1.81,0,0,0-1.17-.33H250Zm0,4.7h3.31a1.89,1.89,0,0,0,1.33-.44,1.64,1.64,0,0,0,.47-1.26,1.55,1.55,0,0,0-.47-1.22,1.93,1.93,0,0,0-1.33-.43H250Z" transform="translate(-0.57)"/><path class="cls-5" d="M258.69,485.71h1.88v10.71h-1.88Z" transform="translate(-0.57)"/><path class="cls-5" d="M262.76,494.39h2.08v2a2.33,2.33,0,0,1-.57,1.56,2.53,2.53,0,0,1-1.45.81v-.92a1.12,1.12,0,0,0,.74-.54,1.65,1.65,0,0,0,.23-.91h-1Z" transform="translate(-0.57)"/><path class="cls-5" d="M271.2,485.71h5.12a4,4,0,0,1,2.65.76,2.67,2.67,0,0,1,.89,2.13,3.1,3.1,0,0,1-.23,1.27,2.63,2.63,0,0,1-.52.81,2,2,0,0,1-.59.44l-.43.18v0a2,2,0,0,1,.52.15,1.51,1.51,0,0,1,.51.39,1.94,1.94,0,0,1,.4.68,2.9,2.9,0,0,1,.16,1.05,10.06,10.06,0,0,0,.14,1.72,2.32,2.32,0,0,0,.44,1.1h-2a1.7,1.7,0,0,1-.24-.77,7.57,7.57,0,0,1,0-.81,7.58,7.58,0,0,0-.09-1.26,2.23,2.23,0,0,0-.33-.89,1.45,1.45,0,0,0-.65-.52,2.92,2.92,0,0,0-1.06-.16h-2.76v4.41H271.2Zm1.88,4.87h3.07a2,2,0,0,0,1.37-.42,1.68,1.68,0,0,0,.46-1.29,2,2,0,0,0-.15-.83,1.19,1.19,0,0,0-.41-.5,1.46,1.46,0,0,0-.6-.24,4,4,0,0,0-.7-.06h-3Z" transform="translate(-0.57)"/><path class="cls-5" d="M282.86,493a2.82,2.82,0,0,0,.13.87,2.08,2.08,0,0,0,.38.74,1.76,1.76,0,0,0,.64.5,2.06,2.06,0,0,0,.93.19,2.09,2.09,0,0,0,1.21-.32,1.9,1.9,0,0,0,.68-1h1.62a3.19,3.19,0,0,1-.46,1.12,3.37,3.37,0,0,1-.8.84,3.6,3.6,0,0,1-1,.51,4.37,4.37,0,0,1-1.21.17,4.11,4.11,0,0,1-1.62-.3,3.38,3.38,0,0,1-1.19-.84,3.55,3.55,0,0,1-.73-1.29,5.1,5.1,0,0,1-.25-1.65,4.83,4.83,0,0,1,.26-1.57,4.18,4.18,0,0,1,.75-1.3,3.5,3.5,0,0,1,2.74-1.23,3.4,3.4,0,0,1,1.64.39,3.5,3.5,0,0,1,1.21,1,4.16,4.16,0,0,1,.7,1.45,4.49,4.49,0,0,1,.11,1.68Zm4-1.12a2.94,2.94,0,0,0-.17-.78,2.2,2.2,0,0,0-.39-.65,1.89,1.89,0,0,0-.6-.45,1.73,1.73,0,0,0-.79-.18,2.18,2.18,0,0,0-.82.16,2,2,0,0,0-.63.44,2.27,2.27,0,0,0-.42.65,2.39,2.39,0,0,0-.17.81Z" transform="translate(-0.57)"/><path class="cls-5" d="M289.91,488.66h1.62v1h0a2.07,2.07,0,0,1,1-1,3.29,3.29,0,0,1,1.4-.3,3.66,3.66,0,0,1,1.6.33,3.17,3.17,0,0,1,1.13.88,3.87,3.87,0,0,1,.67,1.31,5.59,5.59,0,0,1,.23,1.61,5.85,5.85,0,0,1-.2,1.51,3.92,3.92,0,0,1-.62,1.3,2.92,2.92,0,0,1-1,.9,3.06,3.06,0,0,1-1.49.34,3.81,3.81,0,0,1-.75-.07,3,3,0,0,1-.72-.22,2.52,2.52,0,0,1-.63-.38,2,2,0,0,1-.49-.55h0v3.87h-1.71Zm6,3.89a3.86,3.86,0,0,0-.14-1,2.83,2.83,0,0,0-.4-.88,2.09,2.09,0,0,0-.68-.61,1.79,1.79,0,0,0-.93-.24,1.87,1.87,0,0,0-1.62.75,3.29,3.29,0,0,0-.55,2,4.22,4.22,0,0,0,.14,1.09,2.57,2.57,0,0,0,.43.86,2.18,2.18,0,0,0,.68.57,2,2,0,0,0,.92.21,1.91,1.91,0,0,0,1-.24,2.1,2.1,0,0,0,.67-.62,2.62,2.62,0,0,0,.38-.87A4.79,4.79,0,0,0,295.88,492.55Z" transform="translate(-0.57)"/><path class="cls-5" d="M302.58,496.63a4.08,4.08,0,0,1-1.65-.31,3.39,3.39,0,0,1-1.23-.85,3.64,3.64,0,0,1-.77-1.29,5.1,5.1,0,0,1-.26-1.65,5,5,0,0,1,.26-1.63,3.64,3.64,0,0,1,.77-1.29,3.51,3.51,0,0,1,1.23-.85,4.26,4.26,0,0,1,1.65-.31,4.31,4.31,0,0,1,1.66.31,3.51,3.51,0,0,1,1.23.85,3.64,3.64,0,0,1,.77,1.29,5,5,0,0,1,.26,1.63,5.1,5.1,0,0,1-.26,1.65,3.64,3.64,0,0,1-.77,1.29,3.39,3.39,0,0,1-1.23.85A4.13,4.13,0,0,1,302.58,496.63Zm0-1.35a2,2,0,0,0,1-.24,2.09,2.09,0,0,0,.69-.63,2.62,2.62,0,0,0,.4-.88,3.87,3.87,0,0,0,0-2,2.48,2.48,0,0,0-.4-.87,2.09,2.09,0,0,0-.69-.63,2.16,2.16,0,0,0-2,0,2.09,2.09,0,0,0-.69.63,2.47,2.47,0,0,0-.39.87,3.87,3.87,0,0,0,0,2,2.6,2.6,0,0,0,.39.88,2.09,2.09,0,0,0,.69.63A2,2,0,0,0,302.58,495.28Z" transform="translate(-0.57)"/><path class="cls-5" d="M307.92,488.66h1.61v1.5h0a1.79,1.79,0,0,1,.29-.61,3,3,0,0,1,.53-.55,2.71,2.71,0,0,1,.68-.4,2,2,0,0,1,.76-.15l.42,0,.23,0v1.65l-.37,0a2.31,2.31,0,0,0-.37,0,1.85,1.85,0,0,0-.81.18,1.74,1.74,0,0,0-.67.51,2.44,2.44,0,0,0-.45.83,3.6,3.6,0,0,0-.17,1.14v3.69h-1.71Z" transform="translate(-0.57)"/><path class="cls-5" d="M312.42,488.66h1.29v-2.32h1.71v2.32H317v1.28h-1.55v4.14a3,3,0,0,0,0,.46.8.8,0,0,0,.1.33.58.58,0,0,0,.25.21,1.36,1.36,0,0,0,.45.06h.36a2.25,2.25,0,0,0,.36-.06v1.32l-.56.06a4.93,4.93,0,0,1-.55,0,4.05,4.05,0,0,1-1.09-.12,1.44,1.44,0,0,1-.64-.38,1.27,1.27,0,0,1-.32-.62,5.22,5.22,0,0,1-.1-.86v-4.57h-1.29Z" transform="translate(-0.57)"/><path class="cls-5" d="M318.24,485.71H320v1.62h-1.71Zm0,3H320v7.76h-1.71Z" transform="translate(-0.57)"/><path class="cls-5" d="M321.81,488.66h1.62v1.14l0,0a2.9,2.9,0,0,1,1-1,2.79,2.79,0,0,1,1.4-.37,2.9,2.9,0,0,1,2,.66,2.52,2.52,0,0,1,.73,2v5.33h-1.71v-4.88a2.07,2.07,0,0,0-.39-1.32,1.39,1.39,0,0,0-1.12-.42,1.94,1.94,0,0,0-.78.16,1.72,1.72,0,0,0-.59.44,2,2,0,0,0-.37.65,2.3,2.3,0,0,0-.14.79v4.58h-1.71Z" transform="translate(-0.57)"/><path class="cls-5" d="M337.59,496a3.28,3.28,0,0,1-1,2.62,4.13,4.13,0,0,1-2.83.86,5.81,5.81,0,0,1-1.17-.12,3.4,3.4,0,0,1-1.08-.4,2.56,2.56,0,0,1-.82-.75,2.28,2.28,0,0,1-.39-1.14H332a1.34,1.34,0,0,0,.25.58,1.48,1.48,0,0,0,.43.36,1.67,1.67,0,0,0,.55.16,4.26,4.26,0,0,0,.63,0,2,2,0,0,0,1.51-.51,2.07,2.07,0,0,0,.48-1.47v-1.19h0a2.57,2.57,0,0,1-1,1,2.61,2.61,0,0,1-1.34.36,3.59,3.59,0,0,1-1.58-.32,2.94,2.94,0,0,1-1.08-.89,3.58,3.58,0,0,1-.63-1.3,6.09,6.09,0,0,1-.19-1.57,4.61,4.61,0,0,1,.24-1.49,3.7,3.7,0,0,1,.69-1.23,3.29,3.29,0,0,1,1.1-.85,3.38,3.38,0,0,1,1.48-.32,3,3,0,0,1,1.35.31,2.11,2.11,0,0,1,.94,1h0v-1.07h1.71Zm-3.79-.94a2,2,0,0,0,1-.23,1.9,1.9,0,0,0,.64-.62,2.42,2.42,0,0,0,.36-.87,4,4,0,0,0,.11-1,3.83,3.83,0,0,0-.12-1,2.71,2.71,0,0,0-.36-.83,1.79,1.79,0,0,0-.65-.57,2,2,0,0,0-.95-.21,1.8,1.8,0,0,0-1,.24,1.9,1.9,0,0,0-.63.63,2.6,2.6,0,0,0-.35.87,4.47,4.47,0,0,0-.1,1,3.67,3.67,0,0,0,.12.94,2.45,2.45,0,0,0,.37.82,1.85,1.85,0,0,0,.63.58A1.77,1.77,0,0,0,333.8,495.07Z" transform="translate(-0.57)"/><rect class="cls-10" x="263.17" y="413.77" width="57.14" height="57.14" rx="14.17"/><path class="cls-5" d="M86.53,303h5.92a6.72,6.72,0,0,1,2.84.56,5.24,5.24,0,0,1,2,1.53,6.72,6.72,0,0,1,1.13,2.27,10.63,10.63,0,0,1,0,5.56,6.72,6.72,0,0,1-1.13,2.27,5.24,5.24,0,0,1-2,1.53,6.72,6.72,0,0,1-2.84.56H86.53ZM89,315.21h2.46a6.25,6.25,0,0,0,2.39-.39,3.54,3.54,0,0,0,1.46-1.08,4,4,0,0,0,.72-1.62,10.73,10.73,0,0,0,0-4,4,4,0,0,0-.72-1.62,3.54,3.54,0,0,0-1.46-1.08,6.25,6.25,0,0,0-2.39-.39H89Z" transform="translate(-0.57)"/><path class="cls-5" d="M109.31,315a1.14,1.14,0,0,0,.11.6.45.45,0,0,0,.43.18h.24a1.33,1.33,0,0,0,.32,0v1.58l-.31.09-.39.09-.4.06-.34,0a2.14,2.14,0,0,1-1.16-.28,1.37,1.37,0,0,1-.6-1,4.08,4.08,0,0,1-1.67,1,6.59,6.59,0,0,1-1.91.3,4.52,4.52,0,0,1-1.34-.19,3.42,3.42,0,0,1-1.13-.56,2.64,2.64,0,0,1-.78-.94,2.8,2.8,0,0,1-.29-1.33,3,3,0,0,1,.35-1.56,2.59,2.59,0,0,1,.92-.94,4,4,0,0,1,1.28-.49,13.73,13.73,0,0,1,1.43-.23,10.48,10.48,0,0,1,1.18-.17,5.35,5.35,0,0,0,1-.17,1.54,1.54,0,0,0,.68-.37,1.06,1.06,0,0,0,.25-.75,1.18,1.18,0,0,0-.21-.72,1.43,1.43,0,0,0-.52-.43,2.21,2.21,0,0,0-.69-.2,6.39,6.39,0,0,0-.72-.05,2.83,2.83,0,0,0-1.58.4,1.54,1.54,0,0,0-.7,1.24h-2.28a3.42,3.42,0,0,1,.48-1.66,3.28,3.28,0,0,1,1.07-1.06,4.32,4.32,0,0,1,1.47-.56,8.4,8.4,0,0,1,1.68-.16,7,7,0,0,1,1.5.16,4.45,4.45,0,0,1,1.33.52,2.91,2.91,0,0,1,1,.93,2.54,2.54,0,0,1,.36,1.39ZM107,312.07a2.81,2.81,0,0,1-1.28.41c-.51,0-1,.12-1.52.21a5.11,5.11,0,0,0-.7.17,1.88,1.88,0,0,0-.6.3,1.26,1.26,0,0,0-.41.5,1.73,1.73,0,0,0-.15.75.94.94,0,0,0,.22.64,1.54,1.54,0,0,0,.53.41,2.35,2.35,0,0,0,.68.21,4.16,4.16,0,0,0,.67.06,3.59,3.59,0,0,0,.82-.1,2.85,2.85,0,0,0,.83-.34,2.22,2.22,0,0,0,.65-.61,1.57,1.57,0,0,0,.26-.91Z" transform="translate(-0.57)"/><path class="cls-5" d="M110.73,306.91h1.72v-3.1h2.28v3.1h2.06v1.7h-2.06v5.52a5.46,5.46,0,0,0,0,.62,1,1,0,0,0,.14.44.64.64,0,0,0,.33.27,1.58,1.58,0,0,0,.6.09h.48a2.65,2.65,0,0,0,.48-.07v1.76l-.74.08a6,6,0,0,1-.74,0,5.14,5.14,0,0,1-1.45-.17,1.85,1.85,0,0,1-.86-.5,1.68,1.68,0,0,1-.42-.83,5.42,5.42,0,0,1-.13-1.14v-6.1h-1.72Z" transform="translate(-0.57)"/><path class="cls-5" d="M123.17,317.53a5.66,5.66,0,0,1-2.21-.41,4.58,4.58,0,0,1-1.64-1.13,4.71,4.71,0,0,1-1-1.72,6.47,6.47,0,0,1-.35-2.2,6.39,6.39,0,0,1,.35-2.18,4.71,4.71,0,0,1,1-1.72A4.58,4.58,0,0,1,121,307a5.66,5.66,0,0,1,2.21-.41,5.73,5.73,0,0,1,2.21.41,4.76,4.76,0,0,1,1.64,1.13,5,5,0,0,1,1,1.72,6.64,6.64,0,0,1,.35,2.18,6.72,6.72,0,0,1-.35,2.2,5,5,0,0,1-1,1.72,4.76,4.76,0,0,1-1.64,1.13A5.73,5.73,0,0,1,123.17,317.53Zm0-1.8a2.69,2.69,0,0,0,1.32-.32,2.74,2.74,0,0,0,.92-.84,3.89,3.89,0,0,0,.53-1.17,5.25,5.25,0,0,0,0-2.65,3.68,3.68,0,0,0-.53-1.17,2.82,2.82,0,0,0-.92-.83,2.69,2.69,0,0,0-1.32-.32,2.63,2.63,0,0,0-1.32.32,2.72,2.72,0,0,0-.92.83,3.47,3.47,0,0,0-.53,1.17,5.25,5.25,0,0,0,0,2.65,3.66,3.66,0,0,0,.53,1.17,2.62,2.62,0,0,0,2.24,1.16Z" transform="translate(-0.57)"/><path class="cls-5" d="M129.27,306.91h2.48l2.62,7.94h0l2.52-7.94h2.36l-3.7,10.34H133Z" transform="translate(-0.57)"/><path class="cls-5" d="M149.33,315a1.14,1.14,0,0,0,.11.6.45.45,0,0,0,.43.18h.24a1.33,1.33,0,0,0,.32,0v1.58l-.31.09-.39.09-.4.06-.34,0a2.14,2.14,0,0,1-1.16-.28,1.37,1.37,0,0,1-.6-1,4.08,4.08,0,0,1-1.67,1,6.59,6.59,0,0,1-1.91.3,4.52,4.52,0,0,1-1.34-.19,3.42,3.42,0,0,1-1.13-.56,2.64,2.64,0,0,1-.78-.94,2.8,2.8,0,0,1-.29-1.33,3,3,0,0,1,.35-1.56,2.59,2.59,0,0,1,.92-.94,4,4,0,0,1,1.28-.49,13.73,13.73,0,0,1,1.43-.23,10.48,10.48,0,0,1,1.18-.17,5.35,5.35,0,0,0,1-.17,1.54,1.54,0,0,0,.68-.37,1.06,1.06,0,0,0,.25-.75,1.18,1.18,0,0,0-.21-.72,1.43,1.43,0,0,0-.52-.43,2.21,2.21,0,0,0-.69-.2,6.39,6.39,0,0,0-.72-.05,2.83,2.83,0,0,0-1.58.4,1.54,1.54,0,0,0-.7,1.24h-2.28a3.42,3.42,0,0,1,.48-1.66,3.28,3.28,0,0,1,1.07-1.06,4.32,4.32,0,0,1,1.47-.56,8.4,8.4,0,0,1,1.68-.16,7,7,0,0,1,1.5.16,4.45,4.45,0,0,1,1.33.52,2.91,2.91,0,0,1,.95.93,2.54,2.54,0,0,1,.36,1.39Zm-2.28-2.88a2.81,2.81,0,0,1-1.28.41c-.51,0-1,.12-1.52.21a5.11,5.11,0,0,0-.7.17,1.88,1.88,0,0,0-.6.3,1.26,1.26,0,0,0-.41.5,1.73,1.73,0,0,0-.15.75.94.94,0,0,0,.22.64,1.54,1.54,0,0,0,.53.41,2.35,2.35,0,0,0,.68.21,4.16,4.16,0,0,0,.67.06,3.59,3.59,0,0,0,.82-.1,2.85,2.85,0,0,0,.83-.34,2.22,2.22,0,0,0,.65-.61,1.57,1.57,0,0,0,.26-.91Zm-1.3-9.46h2.7l-2.84,2.86H144Z" transform="translate(-0.57)"/><path class="cls-5" d="M157.41,306.91h2.16v1.4h0A2.79,2.79,0,0,1,161,307a4.43,4.43,0,0,1,1.86-.39,4.91,4.91,0,0,1,2.13.43,4.3,4.3,0,0,1,1.51,1.18,5.1,5.1,0,0,1,.9,1.75,7.43,7.43,0,0,1,.3,2.14,7.57,7.57,0,0,1-.27,2,5.42,5.42,0,0,1-.82,1.73,4,4,0,0,1-3.37,1.65,5.55,5.55,0,0,1-1-.09,4.28,4.28,0,0,1-1-.29,3.49,3.49,0,0,1-.85-.51,2.82,2.82,0,0,1-.65-.73h0v5.16h-2.28Zm8,5.18a5.13,5.13,0,0,0-.18-1.36,3.7,3.7,0,0,0-.54-1.17,2.83,2.83,0,0,0-.9-.82,2.43,2.43,0,0,0-1.24-.31,2.5,2.5,0,0,0-2.17,1,4.39,4.39,0,0,0-.73,2.66,5.19,5.19,0,0,0,.19,1.45,3,3,0,0,0,.57,1.15,2.78,2.78,0,0,0,.91.76,2.54,2.54,0,0,0,1.23.28,2.58,2.58,0,0,0,1.32-.32,2.82,2.82,0,0,0,.89-.83,3.46,3.46,0,0,0,.5-1.16A5.9,5.9,0,0,0,165.37,312.09Z" transform="translate(-0.57)"/><path class="cls-5" d="M169.63,303h2.28v14.28h-2.28Z" transform="translate(-0.57)"/><path class="cls-5" d="M183.05,315a1.14,1.14,0,0,0,.11.6.45.45,0,0,0,.43.18h.24a1.33,1.33,0,0,0,.32,0v1.58l-.31.09-.39.09-.4.06-.34,0a2.14,2.14,0,0,1-1.16-.28,1.37,1.37,0,0,1-.6-1,4.08,4.08,0,0,1-1.67,1,6.59,6.59,0,0,1-1.91.3,4.52,4.52,0,0,1-1.34-.19,3.42,3.42,0,0,1-1.13-.56,2.64,2.64,0,0,1-.78-.94,2.8,2.8,0,0,1-.29-1.33,3,3,0,0,1,.35-1.56,2.59,2.59,0,0,1,.92-.94,4,4,0,0,1,1.28-.49,13.73,13.73,0,0,1,1.43-.23,10.48,10.48,0,0,1,1.18-.17,5.35,5.35,0,0,0,1-.17,1.54,1.54,0,0,0,.68-.37,1.06,1.06,0,0,0,.25-.75,1.18,1.18,0,0,0-.21-.72,1.43,1.43,0,0,0-.52-.43,2.21,2.21,0,0,0-.69-.2,6.39,6.39,0,0,0-.72-.05,2.83,2.83,0,0,0-1.58.4,1.54,1.54,0,0,0-.7,1.24h-2.28a3.42,3.42,0,0,1,.48-1.66,3.28,3.28,0,0,1,1.07-1.06,4.32,4.32,0,0,1,1.47-.56,8.4,8.4,0,0,1,1.68-.16,7,7,0,0,1,1.5.16,4.45,4.45,0,0,1,1.33.52,2.91,2.91,0,0,1,.95.93,2.54,2.54,0,0,1,.36,1.39Zm-2.28-2.88a2.81,2.81,0,0,1-1.28.41c-.51,0-1,.12-1.52.21a5.11,5.11,0,0,0-.7.17,1.88,1.88,0,0,0-.6.3,1.26,1.26,0,0,0-.41.5,1.73,1.73,0,0,0-.15.75.94.94,0,0,0,.22.64,1.54,1.54,0,0,0,.53.41,2.35,2.35,0,0,0,.68.21,4.16,4.16,0,0,0,.67.06,3.59,3.59,0,0,0,.82-.1,2.85,2.85,0,0,0,.83-.34,2.22,2.22,0,0,0,.65-.61,1.57,1.57,0,0,0,.26-.91Z" transform="translate(-0.57)"/><path class="cls-5" d="M184.47,306.91h1.72v-3.1h2.28v3.1h2.06v1.7h-2.06v5.52a5.46,5.46,0,0,0,0,.62,1,1,0,0,0,.14.44.64.64,0,0,0,.33.27,1.58,1.58,0,0,0,.6.09h.48a2.65,2.65,0,0,0,.48-.07v1.76l-.74.08a6,6,0,0,1-.74,0,5.14,5.14,0,0,1-1.45-.17,1.85,1.85,0,0,1-.86-.5,1.68,1.68,0,0,1-.42-.83,5.42,5.42,0,0,1-.13-1.14v-6.1h-1.72Z" transform="translate(-0.57)"/><path class="cls-5" d="M191.15,306.91h1.7v-.86a4.44,4.44,0,0,1,.24-1.59,2.21,2.21,0,0,1,.64-.94,2,2,0,0,1,.91-.44,5.24,5.24,0,0,1,1.07-.11,6.76,6.76,0,0,1,1.6.14v1.78a3.55,3.55,0,0,0-.47-.09,5.15,5.15,0,0,0-.59,0,1.36,1.36,0,0,0-.79.22,1,1,0,0,0-.33.86v1.06h1.94v1.7h-1.94v8.64h-2.28v-8.64h-1.7Z" transform="translate(-0.57)"/><path class="cls-5" d="M203.21,317.53a5.66,5.66,0,0,1-2.21-.41,4.58,4.58,0,0,1-1.64-1.13,4.71,4.71,0,0,1-1-1.72,6.47,6.47,0,0,1-.35-2.2,6.39,6.39,0,0,1,.35-2.18,4.71,4.71,0,0,1,1-1.72A4.58,4.58,0,0,1,201,307a5.66,5.66,0,0,1,2.21-.41,5.73,5.73,0,0,1,2.21.41,4.76,4.76,0,0,1,1.64,1.13,5,5,0,0,1,1,1.72,6.64,6.64,0,0,1,.35,2.18,6.72,6.72,0,0,1-.35,2.2,5,5,0,0,1-1,1.72,4.76,4.76,0,0,1-1.64,1.13A5.73,5.73,0,0,1,203.21,317.53Zm0-1.8a2.69,2.69,0,0,0,1.32-.32,2.74,2.74,0,0,0,.92-.84,3.89,3.89,0,0,0,.53-1.17,5.25,5.25,0,0,0,0-2.65,3.68,3.68,0,0,0-.53-1.17,2.82,2.82,0,0,0-.92-.83,2.69,2.69,0,0,0-1.32-.32,2.63,2.63,0,0,0-1.32.32,2.72,2.72,0,0,0-.92.83,3.47,3.47,0,0,0-.53,1.17,5.25,5.25,0,0,0,0,2.65,3.66,3.66,0,0,0,.53,1.17,2.62,2.62,0,0,0,2.24,1.16Z" transform="translate(-0.57)"/><path class="cls-5" d="M210.33,306.91h2.13v2h0a2.46,2.46,0,0,1,.39-.82,4,4,0,0,1,.7-.73,3.61,3.61,0,0,1,.91-.53,2.86,2.86,0,0,1,1-.2l.55,0,.3,0v2.2l-.49-.07-.48,0a2.66,2.66,0,0,0-1.09.23,2.47,2.47,0,0,0-.9.68,3.26,3.26,0,0,0-.59,1.11,4.72,4.72,0,0,0-.22,1.52v4.92h-2.28Z" transform="translate(-0.57)"/><path class="cls-5" d="M217.37,306.91h2.16v1.44h.05a6.67,6.67,0,0,1,.57-.7,2.94,2.94,0,0,1,.67-.54,3.15,3.15,0,0,1,.85-.35,4,4,0,0,1,1.09-.13,3.74,3.74,0,0,1,1.75.42,2.39,2.39,0,0,1,1.16,1.3,4.66,4.66,0,0,1,1.33-1.26,3.63,3.63,0,0,1,1.91-.46,3.76,3.76,0,0,1,2.55.8,3.44,3.44,0,0,1,.91,2.68v7.14h-2.29v-6c0-.41,0-.79,0-1.13a2.32,2.32,0,0,0-.22-.88,1.31,1.31,0,0,0-.57-.57,2.32,2.32,0,0,0-1-.2,1.91,1.91,0,0,0-1.68.72,3.42,3.42,0,0,0-.53,2v6.06h-2.28v-6.64a2.82,2.82,0,0,0-.39-1.63,1.6,1.6,0,0,0-1.42-.55,2.12,2.12,0,0,0-1.58.7,2.88,2.88,0,0,0-.5.84,3.33,3.33,0,0,0-.18,1.14v6.14h-2.28Z" transform="translate(-0.57)"/><path class="cls-5" d="M243.42,315a1.25,1.25,0,0,0,.11.6.47.47,0,0,0,.43.18h.24a1.27,1.27,0,0,0,.32,0v1.58l-.31.09-.39.09a2.57,2.57,0,0,1-.4.06l-.34,0a2.19,2.19,0,0,1-1.16-.28,1.44,1.44,0,0,1-.6-1,4,4,0,0,1-1.67,1,6.54,6.54,0,0,1-1.91.3,4.62,4.62,0,0,1-1.34-.19,3.62,3.62,0,0,1-1.13-.56,2.87,2.87,0,0,1-.78-.94,2.93,2.93,0,0,1-.29-1.33,3.11,3.11,0,0,1,.35-1.56,2.67,2.67,0,0,1,.92-.94,4.1,4.1,0,0,1,1.28-.49,14.17,14.17,0,0,1,1.43-.23,11.18,11.18,0,0,1,1.18-.17,5.07,5.07,0,0,0,1-.17,1.43,1.43,0,0,0,.68-.37,1,1,0,0,0,.25-.75,1.18,1.18,0,0,0-.21-.72,1.35,1.35,0,0,0-.52-.43,2.06,2.06,0,0,0-.69-.2,6.09,6.09,0,0,0-.72-.05,2.85,2.85,0,0,0-1.58.4,1.59,1.59,0,0,0-.7,1.24h-2.28a3.42,3.42,0,0,1,.48-1.66,3.38,3.38,0,0,1,1.07-1.06,4.49,4.49,0,0,1,1.47-.56,8.54,8.54,0,0,1,1.68-.16,6.82,6.82,0,0,1,1.5.16,4.25,4.25,0,0,1,1.33.52,2.82,2.82,0,0,1,.95.93,2.54,2.54,0,0,1,.36,1.39Zm-2.28-2.88a2.73,2.73,0,0,1-1.28.41c-.5,0-1,.12-1.52.21a5.49,5.49,0,0,0-.7.17,2.11,2.11,0,0,0-.6.3,1.35,1.35,0,0,0-.41.5,1.73,1.73,0,0,0-.15.75,1,1,0,0,0,.22.64,1.76,1.76,0,0,0,.53.41,2.56,2.56,0,0,0,.68.21,4.25,4.25,0,0,0,.67.06,3.46,3.46,0,0,0,.82-.1,2.74,2.74,0,0,0,.83-.34,2.11,2.11,0,0,0,.65-.61,1.5,1.5,0,0,0,.26-.91Z" transform="translate(-0.57)"/><path class="cls-5" d="M20.28,330.86v.92h0a2.43,2.43,0,0,1,3.06-.82,1.35,1.35,0,0,1,.66.82,2.22,2.22,0,0,1,.82-.79,2.39,2.39,0,0,1,1.13-.27,3.25,3.25,0,0,1,.85.1,1.72,1.72,0,0,1,.65.32,1.41,1.41,0,0,1,.42.56,2,2,0,0,1,.15.82v4.56H27V333a3.1,3.1,0,0,0-.05-.54,1.24,1.24,0,0,0-.18-.44.91.91,0,0,0-.37-.29,1.51,1.51,0,0,0-.61-.11,1.61,1.61,0,0,0-1.19.43,1.57,1.57,0,0,0-.43,1.16v3.87h-1V333a2.38,2.38,0,0,0-.06-.55,1.25,1.25,0,0,0-.19-.44.84.84,0,0,0-.35-.29,1.35,1.35,0,0,0-.57-.1,1.57,1.57,0,0,0-.77.18,1.82,1.82,0,0,0-.51.43,1.63,1.63,0,0,0-.29.53,1.48,1.48,0,0,0-.09.45v3.87h-1v-6.22Z" transform="translate(-0.57)"/><path class="cls-5" d="M29.43,332.7a2.94,2.94,0,0,1,.58-1A2.77,2.77,0,0,1,31,331a3.53,3.53,0,0,1,2.61,0,2.73,2.73,0,0,1,.94.69,2.94,2.94,0,0,1,.58,1,4,4,0,0,1,.19,1.28,4,4,0,0,1-.19,1.27,2.82,2.82,0,0,1-.58,1,2.61,2.61,0,0,1-.94.69A3.53,3.53,0,0,1,31,337a2.65,2.65,0,0,1-.95-.69,2.82,2.82,0,0,1-.58-1,4.28,4.28,0,0,1-.19-1.27A4.35,4.35,0,0,1,29.43,332.7ZM30.48,335a2,2,0,0,0,.41.74,2,2,0,0,0,.62.45,1.94,1.94,0,0,0,.75.16,1.85,1.85,0,0,0,1.37-.61,2,2,0,0,0,.42-.74,3,3,0,0,0,.15-1,3.15,3.15,0,0,0-.15-1,2.14,2.14,0,0,0-.42-.74,1.63,1.63,0,0,0-.62-.45,1.71,1.71,0,0,0-.75-.16,1.78,1.78,0,0,0-.75.16,1.71,1.71,0,0,0-.62.45,2.12,2.12,0,0,0-.41.74,3.15,3.15,0,0,0-.15,1A3,3,0,0,0,30.48,335Z" transform="translate(-0.57)"/><path class="cls-5" d="M41,337.08v-.84h0a1.54,1.54,0,0,1-.8.75,3,3,0,0,1-1.19.23,2.78,2.78,0,0,1-1.26-.27,2.69,2.69,0,0,1-.89-.71,3.24,3.24,0,0,1-.53-1,4.31,4.31,0,0,1-.18-1.26,4.66,4.66,0,0,1,.17-1.25,3.24,3.24,0,0,1,.53-1,2.64,2.64,0,0,1,.89-.69,2.74,2.74,0,0,1,1.25-.26,2.32,2.32,0,0,1,.51,0,2.36,2.36,0,0,1,.56.16,2,2,0,0,1,.52.3,1.69,1.69,0,0,1,.42.46h0v-3.2h1v8.59Zm-3.67-2.2a2.38,2.38,0,0,0,.34.74,1.81,1.81,0,0,0,1.47.71,1.76,1.76,0,0,0,.88-.21,1.74,1.74,0,0,0,.58-.53,2.27,2.27,0,0,0,.34-.76,4,4,0,0,0,.1-.85,3.74,3.74,0,0,0-.11-.89,2.33,2.33,0,0,0-.34-.75,1.82,1.82,0,0,0-.61-.52,1.93,1.93,0,0,0-.9-.2,1.82,1.82,0,0,0-.88.2,1.61,1.61,0,0,0-.58.55,2.31,2.31,0,0,0-.31.77,3.68,3.68,0,0,0-.1.89A3.06,3.06,0,0,0,37.35,334.88Z" transform="translate(-0.57)"/><path class="cls-5" d="M47.81,337.08v-1h0a2,2,0,0,1-.83.84,2.35,2.35,0,0,1-1.19.28,2.71,2.71,0,0,1-1-.17,1.67,1.67,0,0,1-.66-.46,1.75,1.75,0,0,1-.36-.72,3.71,3.71,0,0,1-.1-.92v-4.09h1v4.21a1.17,1.17,0,0,0,1.27,1.26,2,2,0,0,0,.81-.15,1.49,1.49,0,0,0,.57-.41,1.7,1.7,0,0,0,.34-.62,2.35,2.35,0,0,0,.12-.77v-3.52h1v6.22Z" transform="translate(-0.57)"/><path class="cls-5" d="M51.39,328.49v8.59h-1v-8.59Z" transform="translate(-0.57)"/><path class="cls-5" d="M58.49,337.06a1.46,1.46,0,0,1-.73.16.85.85,0,0,1-.63-.23,1,1,0,0,1-.24-.73,2.39,2.39,0,0,1-1,.73,3.18,3.18,0,0,1-1.21.23,3.5,3.5,0,0,1-.8-.1,1.85,1.85,0,0,1-.65-.3,1.46,1.46,0,0,1-.44-.54,1.76,1.76,0,0,1-.16-.8,1.8,1.8,0,0,1,.18-.86,1.48,1.48,0,0,1,.47-.55,2.18,2.18,0,0,1,.67-.32l.78-.18c.28-.06.55-.1.8-.13a3.09,3.09,0,0,0,.67-.12,1.17,1.17,0,0,0,.46-.23.54.54,0,0,0,.16-.43,1.09,1.09,0,0,0-.12-.55.89.89,0,0,0-.33-.31,1.26,1.26,0,0,0-.44-.14,2.77,2.77,0,0,0-.49,0,2.11,2.11,0,0,0-1.08.25,1,1,0,0,0-.47.93h-1a2.09,2.09,0,0,1,.24-1,1.85,1.85,0,0,1,.57-.64,2.48,2.48,0,0,1,.83-.35,4,4,0,0,1,1-.11,5.93,5.93,0,0,1,.84.06,2.35,2.35,0,0,1,.75.24,1.52,1.52,0,0,1,.54.53,1.6,1.6,0,0,1,.21.87v3.2a2.21,2.21,0,0,0,0,.52c0,.12.12.17.28.17a1,1,0,0,0,.31-.05Zm-1.66-3.19a1.15,1.15,0,0,1-.5.21l-.66.11-.69.09a2.9,2.9,0,0,0-.63.18,1.17,1.17,0,0,0-.45.34,1,1,0,0,0-.17.6.83.83,0,0,0,.1.43,1,1,0,0,0,.26.28,1.16,1.16,0,0,0,.38.15,1.75,1.75,0,0,0,.46.05,2.27,2.27,0,0,0,.87-.14,1.76,1.76,0,0,0,.59-.34,1.31,1.31,0,0,0,.33-.46,1,1,0,0,0,.11-.46Zm.35-6.05-1.69,1.95h-.78l1.16-1.95Z" transform="translate(-0.57)"/><path class="cls-5" d="M60.37,330.86v1.31h0a2.84,2.84,0,0,1,.92-1.12,2.27,2.27,0,0,1,1.37-.33v1.08a3,3,0,0,0-1,.17,1.61,1.61,0,0,0-.69.49,2,2,0,0,0-.39.79,4.26,4.26,0,0,0-.12,1.07v2.76h-1v-6.22Z" transform="translate(-0.57)"/><path class="cls-5" d="M64.63,330.86v1h0a2.15,2.15,0,0,1,2-1.13,2.56,2.56,0,0,1,1,.17,1.69,1.69,0,0,1,.66.47,1.71,1.71,0,0,1,.36.71,4.4,4.4,0,0,1,.1.92v4.09h-1v-4.21a1.24,1.24,0,0,0-.33-.91,1.25,1.25,0,0,0-.93-.34,2.21,2.21,0,0,0-.81.14,1.61,1.61,0,0,0-.57.41,2,2,0,0,0-.35.62,2.77,2.77,0,0,0-.11.78v3.51h-1v-6.22Z" transform="translate(-0.57)"/><path class="cls-5" d="M72.66,327.82,71,329.77h-.77l1.15-1.95Zm-2.24,9.26h1v-6.22h-1Z" transform="translate(-0.57)"/><path class="cls-5" d="M77.16,335.69a1.06,1.06,0,0,0,.38.38,1.69,1.69,0,0,0,.52.19,3.08,3.08,0,0,0,.61.07,4.75,4.75,0,0,0,.51,0,2.52,2.52,0,0,0,.49-.13.93.93,0,0,0,.36-.29.72.72,0,0,0,.15-.47.67.67,0,0,0-.3-.6,2.53,2.53,0,0,0-.76-.33c-.3-.09-.62-.16-1-.23a5.61,5.61,0,0,1-1-.29,2,2,0,0,1-.75-.53,1.33,1.33,0,0,1-.3-.93,1.5,1.5,0,0,1,.21-.81,1.77,1.77,0,0,1,.54-.55,2.52,2.52,0,0,1,.75-.31,3.29,3.29,0,0,1,.82-.1,5,5,0,0,1,1,.09,2.16,2.16,0,0,1,.78.31,1.59,1.59,0,0,1,.55.6,2.18,2.18,0,0,1,.24.95H80a1.06,1.06,0,0,0-.16-.5,1.12,1.12,0,0,0-.33-.32,1.7,1.7,0,0,0-.46-.18,2.72,2.72,0,0,0-.49-.05,2.49,2.49,0,0,0-.47,0,1.52,1.52,0,0,0-.43.12.92.92,0,0,0-.31.24.61.61,0,0,0-.12.39.55.55,0,0,0,.19.44,1.29,1.29,0,0,0,.47.29,5,5,0,0,0,.65.2l.73.16a6.93,6.93,0,0,1,.75.2,2.62,2.62,0,0,1,.65.32,1.47,1.47,0,0,1,.63,1.25,1.67,1.67,0,0,1-.24.93,1.87,1.87,0,0,1-.61.61,2.63,2.63,0,0,1-.85.32,5.17,5.17,0,0,1-1,.09,4.62,4.62,0,0,1-1-.11,2.38,2.38,0,0,1-.83-.36,1.71,1.71,0,0,1-.57-.65,2.09,2.09,0,0,1-.24-1h1A1.09,1.09,0,0,0,77.16,335.69Z" transform="translate(-0.57)"/><path class="cls-5" d="M84.83,337.91a7.34,7.34,0,0,1-.35.77,2.14,2.14,0,0,1-.39.51,1.16,1.16,0,0,1-.47.29,1.78,1.78,0,0,1-.59.09,2.17,2.17,0,0,1-.36,0,2,2,0,0,1-.35-.08v-.94l.3.1a1.24,1.24,0,0,0,.3,0,.86.86,0,0,0,.52-.15.89.89,0,0,0,.32-.43l.42-1-2.46-6.19h1.15L84.69,336h0l1.75-5.09h1.08Z" transform="translate(-0.57)"/><path class="cls-5" d="M89.19,335.69a1.15,1.15,0,0,0,.38.38,1.66,1.66,0,0,0,.53.19,3,3,0,0,0,.61.07,4.57,4.57,0,0,0,.5,0,2.34,2.34,0,0,0,.49-.13.86.86,0,0,0,.36-.29.72.72,0,0,0,.15-.47.67.67,0,0,0-.3-.6,2.36,2.36,0,0,0-.75-.33c-.3-.09-.63-.16-1-.23a5.37,5.37,0,0,1-1-.29,2,2,0,0,1-.76-.53,1.33,1.33,0,0,1-.3-.93,1.5,1.5,0,0,1,.21-.81,1.77,1.77,0,0,1,.54-.55,2.52,2.52,0,0,1,.75-.31,3.34,3.34,0,0,1,.82-.1,5,5,0,0,1,1,.09,2.21,2.21,0,0,1,.79.31,1.56,1.56,0,0,1,.54.6,2.32,2.32,0,0,1,.25.95H92a1.05,1.05,0,0,0-.15-.5,1,1,0,0,0-.34-.32,1.77,1.77,0,0,0-.45-.18,2.83,2.83,0,0,0-.5-.05,2.38,2.38,0,0,0-.46,0,1.43,1.43,0,0,0-.43.12.83.83,0,0,0-.31.24.61.61,0,0,0-.13.39.58.58,0,0,0,.19.44,1.34,1.34,0,0,0,.48.29,4.56,4.56,0,0,0,.65.2l.72.16a5.89,5.89,0,0,1,.75.2,2.46,2.46,0,0,1,.65.32,1.57,1.57,0,0,1,.46.5,1.54,1.54,0,0,1,.17.75,1.76,1.76,0,0,1-.23.93,1.9,1.9,0,0,1-.62.61,2.54,2.54,0,0,1-.85.32,5.09,5.09,0,0,1-1,.09,4.46,4.46,0,0,1-1-.11,2.3,2.3,0,0,1-.83-.36,1.74,1.74,0,0,1-.58-.65,2.36,2.36,0,0,1-.24-1h1A1.09,1.09,0,0,0,89.19,335.69Z" transform="translate(-0.57)"/><path class="cls-5" d="M97.08,330.86v.9H95.84v3.87a1.17,1.17,0,0,0,0,.29.28.28,0,0,0,.12.16.44.44,0,0,0,.23.08l.39,0h.47v.9H96.3a3.43,3.43,0,0,1-.68-.05,1,1,0,0,1-.46-.2.94.94,0,0,1-.26-.41,2.59,2.59,0,0,1-.08-.7v-4H93.76v-.9h1.06V329h1v1.86Z" transform="translate(-0.57)"/><path class="cls-5" d="M102.62,336.69a2.85,2.85,0,0,1-1.76.53,3.16,3.16,0,0,1-1.29-.25,2.49,2.49,0,0,1-.92-.67,2.78,2.78,0,0,1-.56-1,4.56,4.56,0,0,1-.21-1.32,3.79,3.79,0,0,1,.21-1.29,3.2,3.2,0,0,1,.61-1,2.7,2.7,0,0,1,.93-.67,2.85,2.85,0,0,1,1.17-.24,2.54,2.54,0,0,1,1.38.34,2.81,2.81,0,0,1,.88.87,3.42,3.42,0,0,1,.45,1.16,4.93,4.93,0,0,1,.11,1.19H99a2.26,2.26,0,0,0,.1.78,1.78,1.78,0,0,0,.35.65,1.9,1.9,0,0,0,.61.45,2.16,2.16,0,0,0,.88.17A1.75,1.75,0,0,0,102,336a1.44,1.44,0,0,0,.55-.91h1A2.55,2.55,0,0,1,102.62,336.69Zm-.25-4a1.66,1.66,0,0,0-.37-.56,1.72,1.72,0,0,0-.55-.37,1.83,1.83,0,0,0-.71-.14,1.8,1.8,0,0,0-.71.14,1.55,1.55,0,0,0-.55.38,1.8,1.8,0,0,0-.36.56,2.18,2.18,0,0,0-.16.68h3.57A2,2,0,0,0,102.37,332.69Zm-1.27-4.87L100,329.77h.77l1.69-1.95Z" transform="translate(-0.57)"/><path class="cls-5" d="M105.64,330.86v.92h0a2.43,2.43,0,0,1,3.06-.82,1.35,1.35,0,0,1,.66.82,2.17,2.17,0,0,1,.83-.79,2.35,2.35,0,0,1,1.12-.27,3.2,3.2,0,0,1,.85.1,1.72,1.72,0,0,1,.65.32,1.41,1.41,0,0,1,.42.56,2,2,0,0,1,.15.82v4.56h-1V333a3.1,3.1,0,0,0,0-.54,1.08,1.08,0,0,0-.18-.44.91.91,0,0,0-.37-.29,1.51,1.51,0,0,0-.61-.11,1.61,1.61,0,0,0-1.19.43,1.57,1.57,0,0,0-.43,1.16v3.87h-1V333a2.38,2.38,0,0,0-.06-.55,1.24,1.24,0,0,0-.18-.44.94.94,0,0,0-.36-.29,1.35,1.35,0,0,0-.57-.1,1.57,1.57,0,0,0-.77.18,1.82,1.82,0,0,0-.51.43,1.85,1.85,0,0,0-.29.53,1.48,1.48,0,0,0-.09.45v3.87h-1v-6.22Z" transform="translate(-0.57)"/><path class="cls-5" d="M118.34,329.74v-1.25h1v1.25Zm1,1.12v6.22h-1v-6.22Z" transform="translate(-0.57)"/><path class="cls-5" d="M121.92,330.86v1h0a2.15,2.15,0,0,1,2-1.13,2.61,2.61,0,0,1,1,.17,1.69,1.69,0,0,1,.66.47,1.58,1.58,0,0,1,.35.71,3.8,3.8,0,0,1,.11.92v4.09h-1v-4.21a1.24,1.24,0,0,0-.33-.91,1.25,1.25,0,0,0-.93-.34,2.21,2.21,0,0,0-.81.14,1.61,1.61,0,0,0-.57.41,1.81,1.81,0,0,0-.35.62,2.77,2.77,0,0,0-.11.78v3.51h-1v-6.22Z" transform="translate(-0.57)"/><path class="cls-5" d="M130.31,330.86v.9h-1.24v3.87a1.17,1.17,0,0,0,0,.29.31.31,0,0,0,.11.16.52.52,0,0,0,.24.08l.39,0h.47v.9h-.79a3.43,3.43,0,0,1-.68-.05,1,1,0,0,1-.45-.2.79.79,0,0,1-.26-.41,2.2,2.2,0,0,1-.09-.7v-4h-1v-.9h1V329h1v1.86Z" transform="translate(-0.57)"/><path class="cls-5" d="M135.84,336.69a2.83,2.83,0,0,1-1.76.53,3.22,3.22,0,0,1-1.29-.25,2.57,2.57,0,0,1-.92-.67,2.78,2.78,0,0,1-.56-1,5.36,5.36,0,0,1-.21-1.32,3.57,3.57,0,0,1,.22-1.29,3,3,0,0,1,.6-1,2.7,2.7,0,0,1,.93-.67,2.85,2.85,0,0,1,1.17-.24,2.52,2.52,0,0,1,1.38.34,2.71,2.71,0,0,1,.88.87,3.66,3.66,0,0,1,.46,1.16,4.91,4.91,0,0,1,.1,1.19h-4.66a2.53,2.53,0,0,0,.1.78,1.78,1.78,0,0,0,.35.65,1.9,1.9,0,0,0,.61.45,2.16,2.16,0,0,0,.88.17,1.81,1.81,0,0,0,1.07-.31,1.47,1.47,0,0,0,.54-.91h1A2.46,2.46,0,0,1,135.84,336.69Zm-.25-4a1.66,1.66,0,0,0-.37-.56,1.62,1.62,0,0,0-.55-.37,1.87,1.87,0,0,0-1.42,0,1.64,1.64,0,0,0-.55.38,1.8,1.8,0,0,0-.36.56,2.18,2.18,0,0,0-.16.68h3.58A2.06,2.06,0,0,0,135.59,332.69Z" transform="translate(-0.57)"/><path class="cls-5" d="M142.57,338.84a2.84,2.84,0,0,1-2.19.76,3.92,3.92,0,0,1-.89-.1,2.79,2.79,0,0,1-.82-.31,1.92,1.92,0,0,1-.6-.57,1.62,1.62,0,0,1-.27-.85h1a.71.71,0,0,0,.17.47,1.23,1.23,0,0,0,.4.31,1.92,1.92,0,0,0,.51.18,3.27,3.27,0,0,0,.53,0,2,2,0,0,0,.85-.17,1.54,1.54,0,0,0,.58-.49,2,2,0,0,0,.33-.74,4,4,0,0,0,.1-.95V336h0a1.7,1.7,0,0,1-.8.85,2.52,2.52,0,0,1-1.14.27,2.7,2.7,0,0,1-1.21-.25,2.44,2.44,0,0,1-.87-.68,2.8,2.8,0,0,1-.52-1,4,4,0,0,1-.18-1.21,4.45,4.45,0,0,1,.15-1.13,2.84,2.84,0,0,1,.48-1.06,2.63,2.63,0,0,1,.89-.79,2.82,2.82,0,0,1,1.36-.3,2.21,2.21,0,0,1,1.08.26,1.79,1.79,0,0,1,.77.77h0v-.89h1v5.69A3.32,3.32,0,0,1,142.57,338.84Zm-1.31-2.8a1.58,1.58,0,0,0,.57-.55,2.46,2.46,0,0,0,.32-.78,3.67,3.67,0,0,0,.1-.86,3.59,3.59,0,0,0-.09-.81,2.57,2.57,0,0,0-.31-.72,1.59,1.59,0,0,0-.55-.51,1.57,1.57,0,0,0-.81-.19,1.75,1.75,0,0,0-.85.19,1.61,1.61,0,0,0-.57.5,2,2,0,0,0-.32.72,3.41,3.41,0,0,0-.1.85,4,4,0,0,0,.08.84,2.37,2.37,0,0,0,.29.77,1.5,1.5,0,0,0,.54.55,1.56,1.56,0,0,0,.84.21A1.64,1.64,0,0,0,141.26,336Z" transform="translate(-0.57)"/><path class="cls-5" d="M145.73,330.86v1.31h0a2.74,2.74,0,0,1,.91-1.12,2.27,2.27,0,0,1,1.37-.33v1.08a2.86,2.86,0,0,0-1,.17,1.64,1.64,0,0,0-.7.49,2,2,0,0,0-.39.79,4.26,4.26,0,0,0-.12,1.07v2.76h-1v-6.22Z" transform="translate(-0.57)"/><path class="cls-5" d="M154.32,337.06a1.46,1.46,0,0,1-.73.16A.85.85,0,0,1,153,337a1,1,0,0,1-.24-.73,2.39,2.39,0,0,1-1,.73,3.18,3.18,0,0,1-1.21.23,3.5,3.5,0,0,1-.8-.1,1.85,1.85,0,0,1-.65-.3,1.46,1.46,0,0,1-.44-.54,1.76,1.76,0,0,1-.16-.8,1.8,1.8,0,0,1,.18-.86,1.48,1.48,0,0,1,.47-.55,2.18,2.18,0,0,1,.67-.32l.78-.18c.28-.06.55-.1.8-.13a3.09,3.09,0,0,0,.67-.12,1.17,1.17,0,0,0,.46-.23.54.54,0,0,0,.16-.43,1.09,1.09,0,0,0-.12-.55.89.89,0,0,0-.33-.31,1.26,1.26,0,0,0-.44-.14,2.77,2.77,0,0,0-.49,0,2.11,2.11,0,0,0-1.08.25,1,1,0,0,0-.47.93h-1a2.09,2.09,0,0,1,.24-1,1.85,1.85,0,0,1,.57-.64,2.48,2.48,0,0,1,.83-.35,4,4,0,0,1,1-.11,5.93,5.93,0,0,1,.84.06,2.35,2.35,0,0,1,.75.24,1.52,1.52,0,0,1,.54.53,1.6,1.6,0,0,1,.21.87v3.2a2.21,2.21,0,0,0,0,.52c0,.12.12.17.28.17a1,1,0,0,0,.31-.05Zm-1.66-3.19a1.15,1.15,0,0,1-.5.21l-.66.11-.69.09a2.9,2.9,0,0,0-.63.18,1.17,1.17,0,0,0-.45.34,1,1,0,0,0-.17.6.83.83,0,0,0,.1.43,1,1,0,0,0,.26.28,1.16,1.16,0,0,0,.38.15,1.75,1.75,0,0,0,.46.05,2.27,2.27,0,0,0,.87-.14,1.76,1.76,0,0,0,.59-.34,1.31,1.31,0,0,0,.33-.46,1,1,0,0,0,.11-.46Z" transform="translate(-0.57)"/><path class="cls-5" d="M159,332a1.52,1.52,0,0,0-1-.33,2,2,0,0,0-.93.2,1.57,1.57,0,0,0-.59.55,2.13,2.13,0,0,0-.32.77,4,4,0,0,0-.1.91,3.33,3.33,0,0,0,.1.84,2.31,2.31,0,0,0,.32.73,1.65,1.65,0,0,0,.57.51,1.89,1.89,0,0,0,2-.2,1.82,1.82,0,0,0,.53-1.12h1a2.86,2.86,0,0,1-.86,1.78,2.69,2.69,0,0,1-1.88.63,3.33,3.33,0,0,1-1.26-.23,2.52,2.52,0,0,1-.91-.65,2.84,2.84,0,0,1-.56-1,4.3,4.3,0,0,1-.18-1.28,4.54,4.54,0,0,1,.18-1.3,2.89,2.89,0,0,1,.55-1.06,2.5,2.5,0,0,1,.92-.71,2.84,2.84,0,0,1,1.28-.26,4,4,0,0,1,1,.12,2.46,2.46,0,0,1,.81.4,2,2,0,0,1,.59.66,2.52,2.52,0,0,1,.29,1H159.5A1.52,1.52,0,0,0,159,332Z" transform="translate(-0.57)"/><path class="cls-5" d="M166.14,336.69a2.85,2.85,0,0,1-1.76.53,3.22,3.22,0,0,1-1.29-.25,2.49,2.49,0,0,1-.92-.67,2.78,2.78,0,0,1-.56-1,5.36,5.36,0,0,1-.21-1.32,3.57,3.57,0,0,1,.22-1.29,3,3,0,0,1,.6-1,2.7,2.7,0,0,1,.93-.67,2.85,2.85,0,0,1,1.17-.24,2.52,2.52,0,0,1,1.38.34,2.71,2.71,0,0,1,.88.87,3.66,3.66,0,0,1,.46,1.16,4.91,4.91,0,0,1,.1,1.19h-4.66a2.53,2.53,0,0,0,.1.78,1.78,1.78,0,0,0,.35.65,1.9,1.9,0,0,0,.61.45,2.16,2.16,0,0,0,.88.17,1.75,1.75,0,0,0,1.06-.31,1.44,1.44,0,0,0,.55-.91h1A2.46,2.46,0,0,1,166.14,336.69Zm-.25-4a1.66,1.66,0,0,0-.37-.56,1.72,1.72,0,0,0-.55-.37,1.83,1.83,0,0,0-.71-.14,1.8,1.8,0,0,0-.71.14,1.55,1.55,0,0,0-.55.38,1.8,1.8,0,0,0-.36.56,2.18,2.18,0,0,0-.16.68h3.58A2.06,2.06,0,0,0,165.89,332.69Z" transform="translate(-0.57)"/><path class="cls-5" d="M169.76,335.75V337a2.14,2.14,0,0,1-.31,1.18,1.74,1.74,0,0,1-1,.7v-.6a.89.89,0,0,0,.34-.21,1.05,1.05,0,0,0,.22-.3,1.1,1.1,0,0,0,.12-.33,1.83,1.83,0,0,0,0-.32h-.71v-1.33Z" transform="translate(-0.57)"/><path class="cls-5" d="M179.08,337.08v-1h0a2.1,2.1,0,0,1-.83.84,2.38,2.38,0,0,1-1.19.28,2.71,2.71,0,0,1-1-.17,1.54,1.54,0,0,1-.66-.46,1.75,1.75,0,0,1-.36-.72,3.71,3.71,0,0,1-.1-.92v-4.09h1v4.21a1.23,1.23,0,0,0,.34.92,1.25,1.25,0,0,0,.92.34,2,2,0,0,0,.82-.15,1.49,1.49,0,0,0,.57-.41,1.7,1.7,0,0,0,.34-.62,2.35,2.35,0,0,0,.12-.77v-3.52h1v6.22Z" transform="translate(-0.57)"/><path class="cls-5" d="M182.66,328.49v5.09l2.84-2.72h1.37l-2.46,2.26,2.64,4h-1.3l-2.13-3.25-1,.89v2.36h-1v-8.59Z" transform="translate(-0.57)"/><path class="cls-5" d="M188.91,328.49v8.59h-1v-8.59Z" transform="translate(-0.57)"/><path class="cls-5" d="M196,337.06a1.53,1.53,0,0,1-.74.16.89.89,0,0,1-.63-.23,1,1,0,0,1-.23-.73,2.48,2.48,0,0,1-1,.73,3.17,3.17,0,0,1-1.2.23,3.37,3.37,0,0,1-.8-.1,1.82,1.82,0,0,1-.66-.3,1.56,1.56,0,0,1-.44-.54,1.76,1.76,0,0,1-.16-.8,1.8,1.8,0,0,1,.18-.86,1.58,1.58,0,0,1,.47-.55,2.13,2.13,0,0,1,.68-.32c.25-.07.51-.13.77-.18s.55-.1.8-.13a3,3,0,0,0,.67-.12,1.1,1.1,0,0,0,.46-.23.55.55,0,0,0,.17-.43,1,1,0,0,0-.13-.55.86.86,0,0,0-.32-.31,1.39,1.39,0,0,0-.45-.14,2.7,2.7,0,0,0-.49,0,2.11,2.11,0,0,0-1.08.25,1,1,0,0,0-.47.93h-1a2.21,2.21,0,0,1,.24-1,1.87,1.87,0,0,1,.58-.64,2.42,2.42,0,0,1,.82-.35,4,4,0,0,1,1-.11,5.93,5.93,0,0,1,.84.06,2.2,2.2,0,0,1,.75.24,1.38,1.38,0,0,1,.54.53,1.6,1.6,0,0,1,.21.87v3.2a2.21,2.21,0,0,0,0,.52c0,.12.12.17.28.17a1,1,0,0,0,.32-.05Zm-1.66-3.19a1.19,1.19,0,0,1-.51.21l-.66.11-.69.09a2.66,2.66,0,0,0-.62.18,1,1,0,0,0-.45.34.93.93,0,0,0-.18.6.83.83,0,0,0,.1.43.9.9,0,0,0,.27.28,1.08,1.08,0,0,0,.38.15,1.64,1.64,0,0,0,.45.05,2.27,2.27,0,0,0,.87-.14,1.76,1.76,0,0,0,.59-.34,1.34,1.34,0,0,0,.34-.46,1.14,1.14,0,0,0,.11-.46Zm.34-6.05L193,329.77h-.77l1.15-1.95Z" transform="translate(-0.57)"/><path class="cls-5" d="M201.49,337.08v-.84h0a1.51,1.51,0,0,1-.8.75,3,3,0,0,1-1.19.23,2.71,2.71,0,0,1-1.25-.27,2.5,2.5,0,0,1-.89-.71,3.07,3.07,0,0,1-.54-1,4.31,4.31,0,0,1-.18-1.26,4.66,4.66,0,0,1,.17-1.25,3.24,3.24,0,0,1,.53-1,2.64,2.64,0,0,1,.89-.69,2.77,2.77,0,0,1,1.25-.26,2.46,2.46,0,0,1,.52,0,2.29,2.29,0,0,1,.55.16,2,2,0,0,1,.52.3,1.54,1.54,0,0,1,.42.46h0v-3.2h1v8.59Zm-3.67-2.2a2.19,2.19,0,0,0,.35.74,1.67,1.67,0,0,0,.6.51,1.79,1.79,0,0,0,.86.2,1.74,1.74,0,0,0,.88-.21,1.88,1.88,0,0,0,.59-.53,2.47,2.47,0,0,0,.33-.76,3.47,3.47,0,0,0,.1-.85,3.74,3.74,0,0,0-.11-.89,2.33,2.33,0,0,0-.34-.75,1.82,1.82,0,0,0-.61-.52,1.93,1.93,0,0,0-.9-.2,1.82,1.82,0,0,0-.88.2,1.7,1.7,0,0,0-.58.55,2.31,2.31,0,0,0-.31.77,3.68,3.68,0,0,0-.1.89A3.06,3.06,0,0,0,197.82,334.88Z" transform="translate(-0.57)"/><path class="cls-5" d="M209.6,337.06a1.46,1.46,0,0,1-.73.16.85.85,0,0,1-.63-.23,1,1,0,0,1-.24-.73,2.45,2.45,0,0,1-1,.73,3.18,3.18,0,0,1-1.21.23,3.44,3.44,0,0,1-.8-.1,1.85,1.85,0,0,1-.65-.3,1.46,1.46,0,0,1-.44-.54,1.75,1.75,0,0,1-.17-.8,1.8,1.8,0,0,1,.18-.86,1.61,1.61,0,0,1,.48-.55,2.18,2.18,0,0,1,.67-.32l.78-.18c.28-.06.55-.1.8-.13a3.09,3.09,0,0,0,.67-.12,1.17,1.17,0,0,0,.46-.23.54.54,0,0,0,.16-.43,1.09,1.09,0,0,0-.12-.55,1,1,0,0,0-.33-.31,1.26,1.26,0,0,0-.44-.14,2.77,2.77,0,0,0-.49,0,2.11,2.11,0,0,0-1.08.25,1,1,0,0,0-.47.93h-1a2.09,2.09,0,0,1,.24-1,1.85,1.85,0,0,1,.57-.64,2.48,2.48,0,0,1,.83-.35,4,4,0,0,1,1-.11,5.93,5.93,0,0,1,.84.06,2.35,2.35,0,0,1,.75.24,1.52,1.52,0,0,1,.54.53,1.6,1.6,0,0,1,.2.87v3.2a2.09,2.09,0,0,0,0,.52c0,.12.12.17.28.17a1,1,0,0,0,.31-.05Zm-1.66-3.19a1.15,1.15,0,0,1-.5.21l-.66.11-.69.09a2.9,2.9,0,0,0-.63.18,1.17,1.17,0,0,0-.45.34,1,1,0,0,0-.17.6.83.83,0,0,0,.1.43,1,1,0,0,0,.26.28,1.16,1.16,0,0,0,.38.15,1.75,1.75,0,0,0,.46.05,2.27,2.27,0,0,0,.87-.14,1.87,1.87,0,0,0,.59-.34,1.31,1.31,0,0,0,.33-.46,1,1,0,0,0,.11-.46Zm.35-6.05-1.7,1.95h-.77l1.16-1.95Z" transform="translate(-0.57)"/><path class="cls-5" d="M211.52,330.86v1h0a2.14,2.14,0,0,1,2-1.13,2.53,2.53,0,0,1,1,.17,1.66,1.66,0,0,1,.67.47,1.69,1.69,0,0,1,.35.71,3.82,3.82,0,0,1,.1.92v4.09h-1v-4.21a1.17,1.17,0,0,0-1.26-1.25,2.23,2.23,0,0,0-.82.14,1.81,1.81,0,0,0-.57.41,2,2,0,0,0-.34.62,2.45,2.45,0,0,0-.11.78v3.51h-1v-6.22Z" transform="translate(-0.57)"/><path class="cls-5" d="M219.54,327.82l-1.69,1.95h-.77l1.15-1.95Zm-2.24,9.26h1v-6.22h-1Z" transform="translate(-0.57)"/><path class="cls-5" d="M228.77,337.06a1.49,1.49,0,0,1-.73.16.85.85,0,0,1-.63-.23,1,1,0,0,1-.24-.73,2.45,2.45,0,0,1-1,.73,3.22,3.22,0,0,1-1.21.23,3.44,3.44,0,0,1-.8-.1,1.85,1.85,0,0,1-.65-.3,1.37,1.37,0,0,1-.44-.54,1.75,1.75,0,0,1-.17-.8,1.8,1.8,0,0,1,.18-.86,1.51,1.51,0,0,1,.48-.55,2.18,2.18,0,0,1,.67-.32c.26-.07.51-.13.78-.18s.55-.1.8-.13a3.21,3.21,0,0,0,.67-.12,1.06,1.06,0,0,0,.45-.23.52.52,0,0,0,.17-.43,1.09,1.09,0,0,0-.12-.55,1,1,0,0,0-.33-.31,1.26,1.26,0,0,0-.44-.14,2.77,2.77,0,0,0-.49,0,2.11,2.11,0,0,0-1.08.25,1,1,0,0,0-.47.93h-1a2.36,2.36,0,0,1,.24-1,2,2,0,0,1,.58-.64,2.48,2.48,0,0,1,.83-.35,4,4,0,0,1,1-.11,5.93,5.93,0,0,1,.84.06,2.35,2.35,0,0,1,.75.24,1.52,1.52,0,0,1,.54.53,1.6,1.6,0,0,1,.2.87v3.2a2.09,2.09,0,0,0,.05.52c0,.12.12.17.28.17a1,1,0,0,0,.31-.05Zm-1.66-3.19a1.2,1.2,0,0,1-.5.21l-.66.11-.69.09a2.9,2.9,0,0,0-.63.18,1.17,1.17,0,0,0-.45.34.93.93,0,0,0-.17.6.83.83,0,0,0,.1.43.87.87,0,0,0,.26.28,1.16,1.16,0,0,0,.38.15,1.75,1.75,0,0,0,.46.05,2.3,2.3,0,0,0,.87-.14,1.87,1.87,0,0,0,.59-.34,1.31,1.31,0,0,0,.33-.46,1,1,0,0,0,.11-.46Z" transform="translate(-0.57)"/><path class="cls-5" d="M234.78,337.08l-2.31-6.22h1.14l1.74,5.19h0l1.69-5.19h1.07l-2.27,6.22Z" transform="translate(-0.57)"/><path class="cls-5" d="M239.14,329.74v-1.25h1v1.25Zm1,1.12v6.22h-1v-6.22Z" transform="translate(-0.57)"/><path class="cls-5" d="M245,331.76h-3.51v-.9h4.84v.7l-3.81,4.62h4v.9h-5.25v-.78Z" transform="translate(-0.57)"/><path class="cls-5" d="M251.72,337.08v-1h0a2,2,0,0,1-.83.84,2.35,2.35,0,0,1-1.19.28,2.71,2.71,0,0,1-1-.17,1.67,1.67,0,0,1-.66-.46,1.75,1.75,0,0,1-.36-.72,3.71,3.71,0,0,1-.1-.92v-4.09h1v4.21a1.17,1.17,0,0,0,1.27,1.26,2,2,0,0,0,.81-.15,1.49,1.49,0,0,0,.57-.41,1.7,1.7,0,0,0,.34-.62,2.35,2.35,0,0,0,.12-.77v-3.52h1v6.22Z" transform="translate(-0.57)"/><path class="cls-5" d="M259.73,337.06a1.46,1.46,0,0,1-.73.16.85.85,0,0,1-.63-.23,1,1,0,0,1-.24-.73,2.45,2.45,0,0,1-1,.73,3.18,3.18,0,0,1-1.21.23,3.44,3.44,0,0,1-.8-.1,1.85,1.85,0,0,1-.65-.3,1.46,1.46,0,0,1-.44-.54,1.75,1.75,0,0,1-.17-.8,1.8,1.8,0,0,1,.18-.86,1.61,1.61,0,0,1,.48-.55,2.18,2.18,0,0,1,.67-.32l.78-.18c.28-.06.55-.1.8-.13a3.09,3.09,0,0,0,.67-.12,1.17,1.17,0,0,0,.46-.23.54.54,0,0,0,.16-.43,1.09,1.09,0,0,0-.12-.55,1,1,0,0,0-.33-.31,1.26,1.26,0,0,0-.44-.14,2.77,2.77,0,0,0-.49,0,2.11,2.11,0,0,0-1.08.25,1,1,0,0,0-.47.93h-1a2.21,2.21,0,0,1,.25-1,1.85,1.85,0,0,1,.57-.64,2.48,2.48,0,0,1,.83-.35,4,4,0,0,1,1-.11,5.93,5.93,0,0,1,.84.06,2.35,2.35,0,0,1,.75.24,1.52,1.52,0,0,1,.54.53,1.6,1.6,0,0,1,.2.87v3.2a2.09,2.09,0,0,0,.05.52c0,.12.12.17.28.17a1,1,0,0,0,.31-.05Zm-1.66-3.19a1.15,1.15,0,0,1-.5.21l-.66.11-.69.09a2.9,2.9,0,0,0-.63.18,1.17,1.17,0,0,0-.45.34,1,1,0,0,0-.17.6.83.83,0,0,0,.1.43,1,1,0,0,0,.26.28,1.16,1.16,0,0,0,.38.15,1.75,1.75,0,0,0,.46.05,2.27,2.27,0,0,0,.87-.14,1.87,1.87,0,0,0,.59-.34,1.31,1.31,0,0,0,.33-.46,1,1,0,0,0,.11-.46Z" transform="translate(-0.57)"/><path class="cls-5" d="M261.77,328.49v8.59h-1v-8.59Z" transform="translate(-0.57)"/><path class="cls-5" d="M263.41,329.74v-1.25h1v1.25Zm1,1.12v6.22h-1v-6.22Z" transform="translate(-0.57)"/><path class="cls-5" d="M269.27,331.76h-3.51v-.9h4.84v.7l-3.81,4.62h4v.9h-5.25v-.78Z" transform="translate(-0.57)"/><path class="cls-5" d="M277.31,337.06a1.49,1.49,0,0,1-.73.16A.85.85,0,0,1,276,337a1,1,0,0,1-.24-.73,2.45,2.45,0,0,1-1,.73,3.22,3.22,0,0,1-1.21.23,3.44,3.44,0,0,1-.8-.1,1.85,1.85,0,0,1-.65-.3,1.37,1.37,0,0,1-.44-.54,1.75,1.75,0,0,1-.17-.8,1.8,1.8,0,0,1,.18-.86,1.51,1.51,0,0,1,.48-.55,2.18,2.18,0,0,1,.67-.32c.26-.07.51-.13.78-.18s.55-.1.8-.13a3.21,3.21,0,0,0,.67-.12,1.06,1.06,0,0,0,.45-.23.52.52,0,0,0,.17-.43,1.09,1.09,0,0,0-.12-.55,1,1,0,0,0-.33-.31,1.26,1.26,0,0,0-.44-.14,2.77,2.77,0,0,0-.49,0,2.11,2.11,0,0,0-1.08.25,1,1,0,0,0-.47.93h-1a2.36,2.36,0,0,1,.24-1,2,2,0,0,1,.58-.64,2.48,2.48,0,0,1,.83-.35,4,4,0,0,1,1-.11,5.93,5.93,0,0,1,.84.06,2.35,2.35,0,0,1,.75.24,1.52,1.52,0,0,1,.54.53,1.6,1.6,0,0,1,.2.87v3.2a2.09,2.09,0,0,0,.05.52c0,.12.12.17.28.17a1,1,0,0,0,.31-.05Zm-1.66-3.19a1.2,1.2,0,0,1-.5.21l-.66.11-.69.09a2.9,2.9,0,0,0-.63.18,1.17,1.17,0,0,0-.45.34.93.93,0,0,0-.17.6.83.83,0,0,0,.1.43.87.87,0,0,0,.26.28,1.16,1.16,0,0,0,.38.15,1.75,1.75,0,0,0,.46.05,2.27,2.27,0,0,0,.87-.14,1.87,1.87,0,0,0,.59-.34,1.31,1.31,0,0,0,.33-.46,1,1,0,0,0,.11-.46Z" transform="translate(-0.57)"/><path class="cls-5" d="M282,332a1.53,1.53,0,0,0-1-.33,2,2,0,0,0-.93.2,1.67,1.67,0,0,0-.6.55,2.55,2.55,0,0,0-.32.77,4.6,4.6,0,0,0-.09.91,3.33,3.33,0,0,0,.1.84,2.31,2.31,0,0,0,.32.73,1.57,1.57,0,0,0,.57.51,1.64,1.64,0,0,0,.83.2,1.68,1.68,0,0,0,1.18-.4,1.81,1.81,0,0,0,.52-1.12h1.05a2.86,2.86,0,0,1-.86,1.78,2.69,2.69,0,0,1-1.88.63,3.29,3.29,0,0,1-1.26-.23,2.44,2.44,0,0,1-.91-.65,2.84,2.84,0,0,1-.56-1,4.3,4.3,0,0,1-.18-1.28,4.54,4.54,0,0,1,.18-1.3,3,3,0,0,1,.54-1.06,2.68,2.68,0,0,1,.92-.71,2.92,2.92,0,0,1,1.29-.26,4,4,0,0,1,1,.12,2.41,2.41,0,0,1,.82.4,2.09,2.09,0,0,1,.59.66,2.51,2.51,0,0,1,.28,1h-1.05A1.52,1.52,0,0,0,282,332Z" transform="translate(-0.57)"/><path class="cls-5" d="M289.13,336.69a2.85,2.85,0,0,1-1.76.53,3.16,3.16,0,0,1-1.29-.25,2.49,2.49,0,0,1-.92-.67,2.78,2.78,0,0,1-.56-1,4.56,4.56,0,0,1-.21-1.32,3.79,3.79,0,0,1,.21-1.29,3.2,3.2,0,0,1,.61-1,2.7,2.7,0,0,1,.93-.67,2.85,2.85,0,0,1,1.17-.24,2.54,2.54,0,0,1,1.38.34,2.81,2.81,0,0,1,.88.87,3.42,3.42,0,0,1,.45,1.16,4.93,4.93,0,0,1,.11,1.19h-4.66a2.26,2.26,0,0,0,.1.78,1.65,1.65,0,0,0,.35.65,1.9,1.9,0,0,0,.61.45,2.16,2.16,0,0,0,.88.17,1.75,1.75,0,0,0,1.06-.31,1.44,1.44,0,0,0,.55-.91h1A2.55,2.55,0,0,1,289.13,336.69Zm-.25-4a1.66,1.66,0,0,0-.37-.56,1.72,1.72,0,0,0-.55-.37,1.83,1.83,0,0,0-.71-.14,1.8,1.8,0,0,0-.71.14,1.55,1.55,0,0,0-.55.38,1.5,1.5,0,0,0-.36.56,2.18,2.18,0,0,0-.16.68H289A2,2,0,0,0,288.88,332.69Z" transform="translate(-0.57)"/><path class="cls-5" d="M299.07,337.08v-.84h0a1.49,1.49,0,0,1-.79.75,3.08,3.08,0,0,1-1.19.23,2.78,2.78,0,0,1-1.26-.27,2.59,2.59,0,0,1-.89-.71,3.26,3.26,0,0,1-.54-1,4.47,4.47,0,0,1,0-2.51,2.88,2.88,0,0,1,.53-1,2.45,2.45,0,0,1,.89-.69,2.72,2.72,0,0,1,1.24-.26,2.4,2.4,0,0,1,.52,0,2.16,2.16,0,0,1,.55.16,2,2,0,0,1,.53.3,1.65,1.65,0,0,1,.41.46h0v-3.2h1v8.59Zm-3.68-2.2a2.4,2.4,0,0,0,.35.74,1.85,1.85,0,0,0,.6.51,1.82,1.82,0,0,0,.86.2,1.71,1.71,0,0,0,.88-.21,1.77,1.77,0,0,0,.59-.53,2.47,2.47,0,0,0,.33-.76,3.47,3.47,0,0,0,.1-.85,3.74,3.74,0,0,0-.1-.89,2.35,2.35,0,0,0-.35-.75,1.73,1.73,0,0,0-.61-.52,1.87,1.87,0,0,0-.9-.2,1.84,1.84,0,0,0-.88.2,1.58,1.58,0,0,0-.57.55,2.32,2.32,0,0,0-.32.77,4.26,4.26,0,0,0-.09.89A3.05,3.05,0,0,0,295.39,334.88Z" transform="translate(-0.57)"/><path class="cls-5" d="M307.18,337.06a1.51,1.51,0,0,1-.74.16.89.89,0,0,1-.63-.23,1,1,0,0,1-.23-.73,2.45,2.45,0,0,1-1,.73,3.26,3.26,0,0,1-1.21.23,3.44,3.44,0,0,1-.8-.1,1.91,1.91,0,0,1-.66-.3,1.56,1.56,0,0,1-.44-.54,1.76,1.76,0,0,1-.16-.8,1.8,1.8,0,0,1,.18-.86,1.51,1.51,0,0,1,.48-.55,2.08,2.08,0,0,1,.67-.32q.38-.11.78-.18c.28-.06.54-.1.8-.13a3,3,0,0,0,.66-.12,1,1,0,0,0,.46-.23.55.55,0,0,0,.17-.43,1,1,0,0,0-.13-.55.86.86,0,0,0-.32-.31,1.25,1.25,0,0,0-.45-.14,2.59,2.59,0,0,0-.48,0,2.12,2.12,0,0,0-1.09.25,1,1,0,0,0-.47.93h-1a2.36,2.36,0,0,1,.24-1,2,2,0,0,1,.58-.64,2.42,2.42,0,0,1,.82-.35,4,4,0,0,1,1-.11,5.69,5.69,0,0,1,.83.06,2.2,2.2,0,0,1,.75.24,1.47,1.47,0,0,1,.55.53,1.7,1.7,0,0,1,.2.87v3.2a2.21,2.21,0,0,0,0,.52c0,.12.12.17.29.17a1,1,0,0,0,.31-.05Zm-1.66-3.19a1.19,1.19,0,0,1-.51.21l-.65.11-.7.09a2.66,2.66,0,0,0-.62.18,1,1,0,0,0-.45.34,1,1,0,0,0-.08,1,.9.9,0,0,0,.27.28,1.08,1.08,0,0,0,.38.15,1.71,1.71,0,0,0,.46.05,2.25,2.25,0,0,0,.86-.14,1.76,1.76,0,0,0,.59-.34,1.34,1.34,0,0,0,.34-.46,1.14,1.14,0,0,0,.11-.46Z" transform="translate(-0.57)"/><path class="cls-5" d="M310.79,330.86v.9h-1.24v3.87a1.17,1.17,0,0,0,0,.29.31.31,0,0,0,.11.16.52.52,0,0,0,.24.08l.39,0h.47v.9H310a3.27,3.27,0,0,1-.67-.05,1,1,0,0,1-.46-.2.86.86,0,0,1-.26-.41,2.2,2.2,0,0,1-.09-.7v-4h-1v-.9h1V329h1v1.86Z" transform="translate(-0.57)"/><rect class="cls-11" x="118.02" y="192.79" width="92.51" height="92.51" rx="14.17"/><path class="cls-5" d="M5.7,485.23a5,5,0,0,1,2.15.45,4.77,4.77,0,0,1,1.61,1.22,5.31,5.31,0,0,1,1,1.78,6.7,6.7,0,0,1,.35,2.16,6.78,6.78,0,0,1-.35,2.18,5.31,5.31,0,0,1-1,1.78A4.62,4.62,0,0,1,7.85,496a5,5,0,0,1-2.15.44A5,5,0,0,1,3.55,496a4.75,4.75,0,0,1-1.62-1.21,5.65,5.65,0,0,1-1-1.78,6.78,6.78,0,0,1-.35-2.18,6.7,6.7,0,0,1,.35-2.16,5.65,5.65,0,0,1,1-1.78,4.85,4.85,0,0,1,3.77-1.67Zm0,1.53a3,3,0,0,0-1.48.35,3,3,0,0,0-1,.92,4.32,4.32,0,0,0-.58,1.31,6.34,6.34,0,0,0,0,3,4.38,4.38,0,0,0,.58,1.32,3,3,0,0,0,1,.92,3,3,0,0,0,1.48.34,3,3,0,0,0,1.48-.34,3,3,0,0,0,1-.92,4.38,4.38,0,0,0,.58-1.32,6,6,0,0,0,0-3A4.32,4.32,0,0,0,8.19,488a3,3,0,0,0-1-.92A3,3,0,0,0,5.7,486.76Z" transform="translate(-0.57)"/><path class="cls-5" d="M12.35,488.44H14v1.05h0a2.07,2.07,0,0,1,1-1,3.29,3.29,0,0,1,1.4-.3,3.61,3.61,0,0,1,1.59.33,3,3,0,0,1,1.13.88,3.72,3.72,0,0,1,.68,1.31,5.59,5.59,0,0,1,.23,1.61,5.45,5.45,0,0,1-.21,1.51,3.9,3.9,0,0,1-.61,1.3,3.1,3.1,0,0,1-1,.9,3.06,3.06,0,0,1-1.49.34,3.81,3.81,0,0,1-.75-.07,3,3,0,0,1-.72-.22,2.77,2.77,0,0,1-.64-.38,2.15,2.15,0,0,1-.49-.55h0v3.87H12.35Zm6,3.89a3.86,3.86,0,0,0-.14-1,2.83,2.83,0,0,0-.4-.88,2.09,2.09,0,0,0-.68-.61,1.79,1.79,0,0,0-.93-.24,1.9,1.9,0,0,0-1.63.75,3.36,3.36,0,0,0-.54,2,3.83,3.83,0,0,0,.14,1.09,2.4,2.4,0,0,0,.43.86,2,2,0,0,0,.68.57,2.14,2.14,0,0,0,1.91,0,2.21,2.21,0,0,0,.67-.62,2.6,2.6,0,0,0,.37-.87A4.21,4.21,0,0,0,18.32,492.33Z" transform="translate(-0.57)"/><path class="cls-5" d="M22.8,492.76a2.82,2.82,0,0,0,.13.87,2.08,2.08,0,0,0,.38.74,1.76,1.76,0,0,0,.64.5,2.06,2.06,0,0,0,.93.19,2.09,2.09,0,0,0,1.21-.32,1.9,1.9,0,0,0,.68-1h1.62a3.19,3.19,0,0,1-.46,1.12,3.37,3.37,0,0,1-.8.84,3.6,3.6,0,0,1-1,.51,4.37,4.37,0,0,1-1.21.17,4.11,4.11,0,0,1-1.62-.3,3.38,3.38,0,0,1-1.19-.84,3.55,3.55,0,0,1-.73-1.29,5.1,5.1,0,0,1-.25-1.65,4.83,4.83,0,0,1,.26-1.57,4.18,4.18,0,0,1,.75-1.3,3.5,3.5,0,0,1,2.74-1.23,3.4,3.4,0,0,1,1.64.39,3.5,3.5,0,0,1,1.21,1,4.16,4.16,0,0,1,.7,1.45,4.49,4.49,0,0,1,.11,1.68Zm4-1.12a2.94,2.94,0,0,0-.17-.78,2.2,2.2,0,0,0-.39-.65,1.89,1.89,0,0,0-.6-.45,1.73,1.73,0,0,0-.79-.18,2.18,2.18,0,0,0-.82.16,2,2,0,0,0-.63.44,2.27,2.27,0,0,0-.42.65,2.39,2.39,0,0,0-.17.81Z" transform="translate(-0.57)"/><path class="cls-5" d="M29.81,488.44h1.61v1.14l0,0a2.82,2.82,0,0,1,1-1,2.75,2.75,0,0,1,1.39-.37,2.9,2.9,0,0,1,2,.66,2.53,2.53,0,0,1,.74,2v5.33H34.91v-4.88a2.2,2.2,0,0,0-.39-1.32,1.41,1.41,0,0,0-1.13-.42,1.94,1.94,0,0,0-.78.16,1.69,1.69,0,0,0-.58.44,2,2,0,0,0-.38.65,2.3,2.3,0,0,0-.13.79v4.58H29.81Z" transform="translate(-0.57)"/><path class="cls-5" d="M45.72,496.2H44.1v-1.05h0a2.07,2.07,0,0,1-1,1,3.46,3.46,0,0,1-1.39.29,3.81,3.81,0,0,1-1.6-.32,3.29,3.29,0,0,1-1.13-.88,4,4,0,0,1-.68-1.31,5.73,5.73,0,0,1-.22-1.63,5.24,5.24,0,0,1,.28-1.82,3.72,3.72,0,0,1,.76-1.26,2.93,2.93,0,0,1,1.08-.72,3.37,3.37,0,0,1,1.24-.24,4.62,4.62,0,0,1,.73.07,3.53,3.53,0,0,1,.72.22,2.92,2.92,0,0,1,.64.38,2.13,2.13,0,0,1,.49.55h0v-4h1.71Zm-6-3.8a3.62,3.62,0,0,0,.13,1,2.45,2.45,0,0,0,.39.85,2,2,0,0,0,.66.6,2.14,2.14,0,0,0,2,0,2,2,0,0,0,.67-.63,2.6,2.6,0,0,0,.39-.88,3.71,3.71,0,0,0,.13-1,3.1,3.1,0,0,0-.58-2,1.9,1.9,0,0,0-1.57-.72,2,2,0,0,0-1,.25,2.08,2.08,0,0,0-.67.65,2.6,2.6,0,0,0-.38.9A4.9,4.9,0,0,0,39.75,492.4Z" transform="translate(-0.57)"/><path class="cls-5" d="M54.07,494.47a.84.84,0,0,0,.09.45.34.34,0,0,0,.32.14h.18l.24,0v1.18l-.23.07-.29.07-.31,0-.25,0a1.65,1.65,0,0,1-.87-.21,1.06,1.06,0,0,1-.45-.74,3,3,0,0,1-1.25.72,5,5,0,0,1-1.44.23,3.66,3.66,0,0,1-1-.14,2.93,2.93,0,0,1-.85-.42,2,2,0,0,1-.58-.71,2.11,2.11,0,0,1-.22-1,2.36,2.36,0,0,1,.26-1.17,2,2,0,0,1,.69-.7,3.36,3.36,0,0,1,1-.37c.36-.07.72-.13,1.07-.17s.61-.1.89-.13a3.65,3.65,0,0,0,.74-.13,1.12,1.12,0,0,0,.51-.27.77.77,0,0,0,.19-.57.85.85,0,0,0-.16-.54,1,1,0,0,0-.39-.32,2,2,0,0,0-.52-.15,5.29,5.29,0,0,0-.54,0,2.13,2.13,0,0,0-1.18.3,1.17,1.17,0,0,0-.53.93H47.44a2.55,2.55,0,0,1,.36-1.24,2.48,2.48,0,0,1,.81-.8,3.23,3.23,0,0,1,1.1-.42,6.56,6.56,0,0,1,1.26-.12,5.26,5.26,0,0,1,1.12.12,3.16,3.16,0,0,1,1,.39,2.16,2.16,0,0,1,.71.7,1.92,1.92,0,0,1,.27,1Zm-1.71-2.16a2,2,0,0,1-1,.31c-.38,0-.76.09-1.14.16a3,3,0,0,0-.52.13,1.57,1.57,0,0,0-.45.22,1.06,1.06,0,0,0-.31.38,1.33,1.33,0,0,0-.11.56.67.67,0,0,0,.17.48,1.19,1.19,0,0,0,.39.31,2.15,2.15,0,0,0,.51.15,3.24,3.24,0,0,0,.5.05,2.85,2.85,0,0,0,.62-.08,2,2,0,0,0,.62-.25,1.54,1.54,0,0,0,.49-.46,1.14,1.14,0,0,0,.19-.68Z" transform="translate(-0.57)"/><path class="cls-5" d="M55.14,488.44h1.29v-2.32h1.71v2.32h1.54v1.28H58.14v4.14c0,.18,0,.33,0,.46a.8.8,0,0,0,.11.33.5.5,0,0,0,.24.21,1.36,1.36,0,0,0,.45.06h.36l.36-.06v1.32l-.55.06a5.12,5.12,0,0,1-.56,0,3.92,3.92,0,0,1-1.08-.12,1.48,1.48,0,0,1-.65-.38,1.26,1.26,0,0,1-.31-.62,4.32,4.32,0,0,1-.1-.86v-4.57H55.14Z" transform="translate(-0.57)"/><path class="cls-5" d="M67.41,494.47a1,1,0,0,0,.08.45.35.35,0,0,0,.32.14H68l.23,0v1.18a1.63,1.63,0,0,1-.23.07l-.29.07-.3,0-.26,0a1.65,1.65,0,0,1-.87-.21,1.06,1.06,0,0,1-.45-.74,3,3,0,0,1-1.25.72,4.9,4.9,0,0,1-1.43.23,3.73,3.73,0,0,1-1-.14,2.76,2.76,0,0,1-.84-.42,2,2,0,0,1-.59-.71,2.63,2.63,0,0,1,0-2.17,1.86,1.86,0,0,1,.69-.7,3.15,3.15,0,0,1,1-.37c.35-.07.71-.13,1.07-.17s.6-.1.88-.13a3.89,3.89,0,0,0,.75-.13,1.24,1.24,0,0,0,.51-.27.81.81,0,0,0,.18-.57.91.91,0,0,0-.15-.54,1.2,1.2,0,0,0-.39-.32,2.1,2.1,0,0,0-.52-.15,5.29,5.29,0,0,0-.54,0,2.17,2.17,0,0,0-1.19.3,1.17,1.17,0,0,0-.52.93H60.78a2.43,2.43,0,0,1,1.16-2,3.31,3.31,0,0,1,1.1-.42,6.64,6.64,0,0,1,1.26-.12,5.35,5.35,0,0,1,1.13.12,3.26,3.26,0,0,1,1,.39,2.26,2.26,0,0,1,.71.7,1.92,1.92,0,0,1,.27,1Zm-1.71-2.16a2,2,0,0,1-1,.31c-.38,0-.76.09-1.14.16a3.16,3.16,0,0,0-.53.13,1.57,1.57,0,0,0-.45.22.94.94,0,0,0-.3.38,1.19,1.19,0,0,0-.11.56.71.71,0,0,0,.16.48,1.23,1.23,0,0,0,.4.31,1.9,1.9,0,0,0,.51.15,3.13,3.13,0,0,0,.5.05,2.77,2.77,0,0,0,.61-.08,2.13,2.13,0,0,0,.63-.25,1.51,1.51,0,0,0,.48-.46,1.14,1.14,0,0,0,.2-.68Z" transform="translate(-0.57)"/><path class="cls-5" d="M79.38,495a3.68,3.68,0,0,1-1.33,1.07,3.83,3.83,0,0,1-1.67.34,4,4,0,0,1-1.36-.22,3.07,3.07,0,0,1-1.07-.62,2.78,2.78,0,0,1-.7-1,3.52,3.52,0,0,1-.25-1.34,2.51,2.51,0,0,1,.21-1,3.16,3.16,0,0,1,.56-.84,4,4,0,0,1,.79-.69,8.24,8.24,0,0,1,.9-.54l-.4-.53a3.94,3.94,0,0,1-.35-.55,3.13,3.13,0,0,1-.24-.6,2.39,2.39,0,0,1-.09-.66,2.52,2.52,0,0,1,.21-1,2.36,2.36,0,0,1,.56-.8,2.58,2.58,0,0,1,.84-.52,2.88,2.88,0,0,1,1-.18,3.43,3.43,0,0,1,1,.16,2.54,2.54,0,0,1,.85.48,2.38,2.38,0,0,1,.59.8,2.65,2.65,0,0,1,.23,1.13,2.3,2.3,0,0,1-.16.88,2.77,2.77,0,0,1-.42.75,3.47,3.47,0,0,1-.61.6,6,6,0,0,1-.75.48l1.67,2c.06-.17.12-.36.18-.58a6,6,0,0,0,.15-.86h1.5a7.19,7.19,0,0,1-.28,1.38,4.87,4.87,0,0,1-.56,1.25l2,2.49h-2.1Zm-3-3.75-.52.3a2.4,2.4,0,0,0-.53.37,1.87,1.87,0,0,0-.42.54,1.61,1.61,0,0,0-.18.8,1.77,1.77,0,0,0,.49,1.33,1.74,1.74,0,0,0,1.24.47,2.08,2.08,0,0,0,.79-.13,2.21,2.21,0,0,0,.57-.31,2.4,2.4,0,0,0,.39-.39l.27-.37Zm.69-4.74a1.13,1.13,0,0,0-.81.32,1.15,1.15,0,0,0-.33.86,1.45,1.45,0,0,0,.1.51,4.92,4.92,0,0,0,.24.45c.1.14.2.28.32.42l.32.41.46-.34a2.92,2.92,0,0,0,.41-.37,1.67,1.67,0,0,0,.28-.46,1.48,1.48,0,0,0,.11-.57,1.32,1.32,0,0,0-.3-.88A1,1,0,0,0,77.05,486.51Z" transform="translate(-0.57)"/><path class="cls-5" d="M90.42,485.49h2l4.13,10.71h-2l-1-2.84H89.25l-1,2.84H86.31Zm-.66,6.45H93l-1.61-4.61h0Z" transform="translate(-0.57)"/><path class="cls-5" d="M97.56,485.49h4.72a4.49,4.49,0,0,1,1.86.33,2.93,2.93,0,0,1,1.11.82,2.89,2.89,0,0,1,.54,1.08,4.24,4.24,0,0,1,0,2.16,2.79,2.79,0,0,1-1.65,1.89,4.67,4.67,0,0,1-1.86.32H99.43v4.11H97.56Zm1.87,5.07h2.75a2.41,2.41,0,0,0,.64-.09,1.91,1.91,0,0,0,.61-.29,1.48,1.48,0,0,0,.45-.54,1.82,1.82,0,0,0,.17-.85,2.19,2.19,0,0,0-.15-.87,1.43,1.43,0,0,0-.4-.55,1.53,1.53,0,0,0-.59-.28,3.14,3.14,0,0,0-.7-.07H99.43Z" transform="translate(-0.57)"/><path class="cls-5" d="M107.56,485.49h1.88V496.2h-1.88Z" transform="translate(-0.57)"/><rect class="cls-12" x="26.16" y="414.15" width="57.14" height="57.14" rx="14.17"/><path class="cls-5" d="M202.11,68.69h1.75v10h-1.75Z" transform="translate(-0.57)"/><path class="cls-5" d="M205.78,71.45h1.51v1.07l0,0a2.67,2.67,0,0,1,1-.94,2.52,2.52,0,0,1,1.3-.34,2.71,2.71,0,0,1,1.88.61,2.35,2.35,0,0,1,.68,1.85v5h-1.59V74.14a2,2,0,0,0-.37-1.24,1.3,1.3,0,0,0-1-.38,1.81,1.81,0,0,0-.72.14,1.62,1.62,0,0,0-.55.41,1.74,1.74,0,0,0-.35.61,2.26,2.26,0,0,0-.13.74v4.27h-1.59Z" transform="translate(-0.57)"/><path class="cls-5" d="M213.09,71.45h1.2V69.28h1.6v2.17h1.44v1.19h-1.44v3.87a2.82,2.82,0,0,0,0,.43.63.63,0,0,0,.1.31.44.44,0,0,0,.23.19,1.17,1.17,0,0,0,.42.06H217a1.33,1.33,0,0,0,.34,0v1.24l-.52,0a4.41,4.41,0,0,1-.52,0,3.44,3.44,0,0,1-1-.12,1.35,1.35,0,0,1-.6-.35,1.15,1.15,0,0,1-.3-.58,4.53,4.53,0,0,1-.09-.8V72.64h-1.2Z" transform="translate(-0.57)"/><path class="cls-5" d="M219.72,75.48a2.86,2.86,0,0,0,.12.82,1.93,1.93,0,0,0,.36.68,1.74,1.74,0,0,0,.6.47,1.93,1.93,0,0,0,.87.18,1.87,1.87,0,0,0,1.13-.31,1.79,1.79,0,0,0,.63-.9h1.51a3,3,0,0,1-1.17,1.83,3.26,3.26,0,0,1-1,.48,4.23,4.23,0,0,1-1.13.16,4,4,0,0,1-1.51-.28,3.14,3.14,0,0,1-1.8-2,4.74,4.74,0,0,1-.23-1.54,4.53,4.53,0,0,1,.24-1.47,3.92,3.92,0,0,1,.7-1.21,3.5,3.5,0,0,1,1.1-.84,3.4,3.4,0,0,1,1.46-.3,3.32,3.32,0,0,1,1.53.35,3.48,3.48,0,0,1,1.13,1,4,4,0,0,1,.65,1.35,4.13,4.13,0,0,1,.1,1.57Zm3.73-1a2.89,2.89,0,0,0-.16-.72,1.78,1.78,0,0,0-.37-.61,1.56,1.56,0,0,0-.56-.42,1.6,1.6,0,0,0-.73-.16,2.11,2.11,0,0,0-.77.14,1.74,1.74,0,0,0-.58.41,1.85,1.85,0,0,0-.4.61,2.28,2.28,0,0,0-.16.75Z" transform="translate(-0.57)"/><path class="cls-5" d="M233,78.31a3.07,3.07,0,0,1-.91,2.44,3.9,3.9,0,0,1-2.64.81,5.86,5.86,0,0,1-1.1-.11,3.3,3.3,0,0,1-1-.38,2.42,2.42,0,0,1-.76-.7,2.1,2.1,0,0,1-.37-1.06h1.6a1.22,1.22,0,0,0,.24.54,1.16,1.16,0,0,0,.4.33,1.61,1.61,0,0,0,.51.16,5.41,5.41,0,0,0,.59,0,1.85,1.85,0,0,0,1.41-.48,1.9,1.9,0,0,0,.45-1.37v-1.1h0a2.51,2.51,0,0,1-2.17,1.27,3.34,3.34,0,0,1-1.48-.3,2.91,2.91,0,0,1-1-.83,3.48,3.48,0,0,1-.58-1.21,5.8,5.8,0,0,1-.18-1.47,4.48,4.48,0,0,1,.22-1.38,3.56,3.56,0,0,1,.65-1.16,3.12,3.12,0,0,1,1-.79,3,3,0,0,1,1.38-.29,2.83,2.83,0,0,1,1.26.28,2,2,0,0,1,.88.91h0v-1H233Zm-3.54-.88a1.67,1.67,0,0,0,.9-.22,1.75,1.75,0,0,0,.61-.57,2.65,2.65,0,0,0,.33-.81,4.13,4.13,0,0,0,.11-.92,3.82,3.82,0,0,0-.11-.9,2.46,2.46,0,0,0-.35-.77,1.62,1.62,0,0,0-.6-.53,1.89,1.89,0,0,0-.89-.19,1.72,1.72,0,0,0-.9.22,1.79,1.79,0,0,0-.58.58,2.65,2.65,0,0,0-.33.81,4.76,4.76,0,0,0-.09.91,3.15,3.15,0,0,0,.11.87,2.29,2.29,0,0,0,.34.76,1.82,1.82,0,0,0,.59.55A1.69,1.69,0,0,0,229.41,77.43Z" transform="translate(-0.57)"/><path class="cls-5" d="M234.56,71.45h1.5v1.4h0a1.56,1.56,0,0,1,.27-.57,2.63,2.63,0,0,1,.49-.51,2.14,2.14,0,0,1,.64-.37,1.76,1.76,0,0,1,.71-.14h.39l.21,0v1.54l-.34,0a2,2,0,0,0-.34,0,1.76,1.76,0,0,0-.76.16,1.8,1.8,0,0,0-.63.47,2.62,2.62,0,0,0-.42.78,3.46,3.46,0,0,0-.15,1.07v3.44h-1.6Z" transform="translate(-0.57)"/><path class="cls-5" d="M245.55,77.08a.83.83,0,0,0,.08.42.33.33,0,0,0,.3.13h.17l.22,0v1.1l-.21.07-.28.06-.28,0-.24,0a1.57,1.57,0,0,1-.81-.2,1,1,0,0,1-.42-.69,2.79,2.79,0,0,1-1.17.68,4.54,4.54,0,0,1-1.33.21,3.24,3.24,0,0,1-.94-.14,2.54,2.54,0,0,1-.79-.39,1.87,1.87,0,0,1-.55-.66,2.06,2.06,0,0,1-.2-.93,2.17,2.17,0,0,1,.24-1.09A1.87,1.87,0,0,1,240,75a2.79,2.79,0,0,1,.89-.34c.33-.07.67-.12,1-.16a6.64,6.64,0,0,1,.83-.12,3.29,3.29,0,0,0,.69-.12,1.11,1.11,0,0,0,.48-.26.7.7,0,0,0,.17-.52.81.81,0,0,0-.14-.51,1,1,0,0,0-.37-.3,1.42,1.42,0,0,0-.48-.14l-.5,0a2,2,0,0,0-1.11.28,1.08,1.08,0,0,0-.49.86h-1.6a2.26,2.26,0,0,1,1.09-1.9,2.9,2.9,0,0,1,1-.39,5.66,5.66,0,0,1,1.17-.11,4.57,4.57,0,0,1,1,.11,2.87,2.87,0,0,1,.94.36,2.16,2.16,0,0,1,.66.65,1.79,1.79,0,0,1,.25,1Zm-1.59-2a1.92,1.92,0,0,1-.9.29,9.65,9.65,0,0,0-1.06.15,3.89,3.89,0,0,0-.49.12,1.38,1.38,0,0,0-.42.21.83.83,0,0,0-.29.35,1.17,1.17,0,0,0-.11.52.69.69,0,0,0,.16.45,1.06,1.06,0,0,0,.37.29,1.42,1.42,0,0,0,.48.14,2.68,2.68,0,0,0,.46,0,3.15,3.15,0,0,0,.58-.07,2.09,2.09,0,0,0,.58-.24,1.54,1.54,0,0,0,.45-.43,1,1,0,0,0,.19-.64Z" transform="translate(-0.57)"/><path class="cls-5" d="M252.16,73.87a1.5,1.5,0,0,0-.54-1,1.73,1.73,0,0,0-1.11-.34,2.25,2.25,0,0,0-.66.1,1.54,1.54,0,0,0-.64.39,2.14,2.14,0,0,0-.49.8,4.17,4.17,0,0,0-.09,2.23,2.5,2.5,0,0,0,.33.8,1.82,1.82,0,0,0,.6.57,1.71,1.71,0,0,0,.88.22,1.58,1.58,0,0,0,1.15-.44,2,2,0,0,0,.57-1.22h1.6a3.53,3.53,0,0,1-1.07,2.17,3.29,3.29,0,0,1-2.25.75,3.77,3.77,0,0,1-1.51-.29,3.24,3.24,0,0,1-1.1-.78,3.47,3.47,0,0,1-.67-1.19,4.46,4.46,0,0,1-.24-1.48,5.1,5.1,0,0,1,.23-1.53,3.54,3.54,0,0,1,.67-1.24,3.15,3.15,0,0,1,1.11-.82,3.81,3.81,0,0,1,1.56-.3,4.24,4.24,0,0,1,1.2.16,3,3,0,0,1,1,.48,2.68,2.68,0,0,1,.72.81,2.81,2.81,0,0,1,.34,1.16Z" transform="translate(-0.57)"/><path class="cls-5" d="M256.3,75.48a2.86,2.86,0,0,0,.12.82,1.93,1.93,0,0,0,.36.68,1.74,1.74,0,0,0,.6.47,2,2,0,0,0,.87.18,1.87,1.87,0,0,0,1.13-.31,1.73,1.73,0,0,0,.63-.9h1.52a3.08,3.08,0,0,1-.44,1,2.9,2.9,0,0,1-.74.78,3.26,3.26,0,0,1-1,.48,4.23,4.23,0,0,1-1.13.16,4,4,0,0,1-1.51-.28,3.22,3.22,0,0,1-1.8-2,5,5,0,0,1-.23-1.54,4.53,4.53,0,0,1,.24-1.47,3.92,3.92,0,0,1,.7-1.21,3.5,3.5,0,0,1,1.1-.84,3.43,3.43,0,0,1,1.46-.3,3.32,3.32,0,0,1,1.53.35,3.48,3.48,0,0,1,1.13,1,3.85,3.85,0,0,1,.65,1.35,3.94,3.94,0,0,1,.1,1.57Zm3.73-1a2.51,2.51,0,0,0-.16-.72,1.78,1.78,0,0,0-.37-.61,1.56,1.56,0,0,0-.56-.42,1.6,1.6,0,0,0-.73-.16,2,2,0,0,0-.76.14,1.78,1.78,0,0,0-.59.41,1.68,1.68,0,0,0-.39.61,2.06,2.06,0,0,0-.17.75Z" transform="translate(-0.57)"/><path class="cls-5" d="M273.55,78.69H272v-1h0a1.83,1.83,0,0,1-.94.9,3.2,3.2,0,0,1-1.3.28,3.48,3.48,0,0,1-1.49-.3,3.21,3.21,0,0,1-1.06-.82,3.58,3.58,0,0,1-.63-1.23,5.32,5.32,0,0,1-.21-1.52,4.75,4.75,0,0,1,.27-1.69,3.35,3.35,0,0,1,.71-1.18,2.73,2.73,0,0,1,1-.68,3.25,3.25,0,0,1,1.15-.21,4.2,4.2,0,0,1,.69.06,3.22,3.22,0,0,1,.67.2,2.74,2.74,0,0,1,.59.36,1.72,1.72,0,0,1,.46.51h0v-3.7h1.59ZM268,75.15a3.5,3.5,0,0,0,.12.91,2.65,2.65,0,0,0,.36.8,1.89,1.89,0,0,0,.63.56,2,2,0,0,0,1.81,0,1.78,1.78,0,0,0,.63-.59,2.7,2.7,0,0,0,.36-.81,3.73,3.73,0,0,0,.12-.94,2.91,2.91,0,0,0-.54-1.87,1.76,1.76,0,0,0-1.46-.67,1.73,1.73,0,0,0-.94.23,1.81,1.81,0,0,0-.63.6,2.41,2.41,0,0,0-.35.84A4.35,4.35,0,0,0,268,75.15Z" transform="translate(-0.57)"/><path class="cls-5" d="M281.35,77.08a.83.83,0,0,0,.08.42.33.33,0,0,0,.3.13h.17l.22,0v1.1l-.22.07-.27.06-.28,0-.24,0a1.54,1.54,0,0,1-.81-.2,1,1,0,0,1-.42-.69,2.85,2.85,0,0,1-1.17.68,4.61,4.61,0,0,1-1.34.21,3.17,3.17,0,0,1-.93-.14,2.43,2.43,0,0,1-.79-.39,1.77,1.77,0,0,1-.55-.66,1.93,1.93,0,0,1-.2-.93,2.17,2.17,0,0,1,.24-1.09,1.79,1.79,0,0,1,.65-.66,2.79,2.79,0,0,1,.89-.34c.33-.07.67-.12,1-.16a6.64,6.64,0,0,1,.83-.12,3.29,3.29,0,0,0,.69-.12,1.11,1.11,0,0,0,.48-.26.74.74,0,0,0,.17-.52.88.88,0,0,0-.14-.51,1,1,0,0,0-.37-.3,1.42,1.42,0,0,0-.48-.14l-.51,0a2,2,0,0,0-1.1.28,1.08,1.08,0,0,0-.49.86h-1.6a2.4,2.4,0,0,1,.34-1.16,2.21,2.21,0,0,1,.75-.74,2.83,2.83,0,0,1,1-.39,5.66,5.66,0,0,1,1.17-.11,4.57,4.57,0,0,1,1.05.11,2.73,2.73,0,0,1,.93.36,2.08,2.08,0,0,1,.67.65,1.79,1.79,0,0,1,.25,1Zm-1.6-2a1.88,1.88,0,0,1-.89.29,9.83,9.83,0,0,0-1.07.15,4.37,4.37,0,0,0-.49.12,1.65,1.65,0,0,0-.42.21.89.89,0,0,0-.28.35,1.17,1.17,0,0,0-.11.52.64.64,0,0,0,.16.45,1.06,1.06,0,0,0,.37.29,1.43,1.43,0,0,0,.47.14,2.9,2.9,0,0,0,.47,0,3.15,3.15,0,0,0,.58-.07,2.09,2.09,0,0,0,.58-.24,1.54,1.54,0,0,0,.45-.43,1.08,1.08,0,0,0,.18-.64Z" transform="translate(-0.57)"/><path class="cls-5" d="M282.34,71.45h1.21V69.28h1.59v2.17h1.45v1.19h-1.45v3.87a2.72,2.72,0,0,0,0,.43.75.75,0,0,0,.09.31.48.48,0,0,0,.23.19,1.25,1.25,0,0,0,.42.06h.34a1.4,1.4,0,0,0,.34,0v1.24l-.52,0a4.41,4.41,0,0,1-.52,0,3.44,3.44,0,0,1-1-.12,1.44,1.44,0,0,1-.61-.35,1.23,1.23,0,0,1-.29-.58,4.53,4.53,0,0,1-.09-.8V72.64h-1.21Z" transform="translate(-0.57)"/><rect class="cls-13" x="214.83" width="57.14" height="57.14" rx="14.17"/><path class="cls-14" d="M66.6,436l-9.44-4.31a5.21,5.21,0,0,0-3.73,0L44,436c-1.12.51-1.12,1.33,0,1.84l9.35,4.27a5.46,5.46,0,0,0,3.9,0l9.35-4.27C67.72,437.35,67.72,436.53,66.6,436ZM53.35,451,47,448.17a1,1,0,0,0-.84,0l-2.2,1c-1.12.51-1.12,1.33,0,1.84l9.35,4.27a5.46,5.46,0,0,0,3.9,0L66.6,451c1.12-.51,1.12-1.33,0-1.84l-2.2-1a1,1,0,0,0-.84,0L57.25,451a5.36,5.36,0,0,1-3.9,0Z" transform="translate(-0.57)"/><path class="cls-15" d="M66.6,442.59l-2-.91a1,1,0,0,0-.83,0l-6.83,3.1a5.72,5.72,0,0,1-3.28,0l-6.83-3.1a1,1,0,0,0-.84,0l-2,.91c-1.11.51-1.11,1.34,0,1.84l9.36,4.27a5.33,5.33,0,0,0,3.89,0l9.36-4.27C67.72,443.93,67.72,443.1,66.6,442.59Z" transform="translate(-0.57)"/><path class="cls-16" d="M162.91,248.09a1.23,1.23,0,0,0-.87-.36,1.23,1.23,0,0,0-1.23,1.23,1.16,1.16,0,0,0,.36.86h0l3.6,3.52H157a3.66,3.66,0,0,1-3.65-2.06,12.46,12.46,0,0,1-.83-5.13V234.28a6.07,6.07,0,0,0,3.42-1.92,6.14,6.14,0,1,0-10.7-4.12,6.13,6.13,0,0,0,4.82,6v11.9a15.59,15.59,0,0,0,.83,5.73A6.1,6.1,0,0,0,157,255.8h7.87l-3.49,3.53a1.25,1.25,0,0,0,0,1.74h0a1.28,1.28,0,0,0,.86.34,1.17,1.17,0,0,0,.87-.36l5.06-5a1.94,1.94,0,0,0,.57-1.38,1.89,1.89,0,0,0-.57-1.36l-5.22-5.19Zm-11.58-16.16a3.69,3.69,0,1,1,3.69-3.69A3.69,3.69,0,0,1,151.33,231.93Zm28.35,17.34v-11.9a15.59,15.59,0,0,0-.83-5.73,6.11,6.11,0,0,0-6.11-3.92h-7.87l3.49-3.53a1.25,1.25,0,0,0,0-1.74h0a1.28,1.28,0,0,0-.86-.34,1.17,1.17,0,0,0-.87.36l-5.06,5a1.93,1.93,0,0,0,0,2.74l5.23,5.21a1.23,1.23,0,0,0,.87.36,1.19,1.19,0,0,0,.87-.36,1.23,1.23,0,0,0,.36-.87,1.19,1.19,0,0,0-.36-.87h0l-3.61-3.53h7.83a3.65,3.65,0,0,1,3.65,2.07,12.46,12.46,0,0,1,.83,5.13v11.87a6.14,6.14,0,0,0-5,6,6.14,6.14,0,1,0,7.46-6ZM178.36,259a3.69,3.69,0,1,1,3.69-3.69A3.69,3.69,0,0,1,178.36,259Z" transform="translate(-0.57)"/><path class="cls-17" d="M151.33,352.62c-9.26,24.44-81.81,8.14-85,46.72" transform="translate(-0.57)"/><polygon class="cls-18" points="146.71 352.88 151.72 347.33 154.02 354.45 146.71 352.88"/><polygon class="cls-19" points="62.14 398.2 65.8 404.73 69.62 398.3 62.14 398.2"/><path class="cls-20" d="M174.29,352.36c-1.34,22,2.81,7.05-.38,47" transform="translate(-0.57)"/><polygon class="cls-21" points="169.97 353.22 174.1 346.99 177.43 353.69 169.97 353.22"/><polygon class="cls-22" points="169.66 397.99 172.9 404.73 177.11 398.55 169.66 397.99"/><path class="cls-23" d="M198.45,352.32c9,22.27,91.17,8.5,94.3,48.58" transform="translate(-0.57)"/><polygon class="cls-24" points="194.61 354.03 197.13 346.99 201.97 352.69 194.61 354.03"/><polygon class="cls-25" points="288.35 399.83 292.14 406.28 295.83 399.78 288.35 399.83"/><path class="cls-26" d="M242.58,91.33c0,37.68-72.1,42.15-71.77,87.52" transform="translate(-0.57)"/><polygon class="cls-27" points="166.54 177.94 170.6 184.22 174.01 177.57 166.54 177.94"/><path class="cls-28" d="M101.42,91.33c0,37.47,57.46,47.89,57.44,87.52" transform="translate(-0.57)"/><polygon class="cls-29" points="154.52 177.58 157.95 184.22 161.99 177.93 154.52 177.58"/><path class="cls-30" d="M235,21.57v6.25h10.5L242.76,25a.75.75,0,0,1,0-1.07.76.76,0,0,1,1.08,0l4,4.09a.77.77,0,0,1,.22.53.72.72,0,0,1-.06.29.63.63,0,0,1-.16.24l-4,4.09a.77.77,0,0,1-1.08,0,.75.75,0,0,1,0-1.07l2.75-2.8H235v6.25a2.34,2.34,0,0,0,2.33,2.33h14a2.34,2.34,0,0,0,2.34-2.33v-14a2.35,2.35,0,0,0-2.34-2.34h-14A2.35,2.35,0,0,0,235,21.57Zm-4.85,6.25a.76.76,0,1,0,0,1.51H235V27.82Z" transform="translate(-0.57)"/><path class="cls-5" d="M51.79,68.69H59v1.52H53.54v2.61h5v1.43h-5v2.93h5.54v1.51H51.79Z" transform="translate(-0.57)"/><path class="cls-5" d="M62.33,74.88l-2.51-3.43h1.93l1.52,2.23,1.58-2.23H66.7L64.23,74.8,67,78.69H65.09L63.25,76l-1.78,2.67H59.6Z" transform="translate(-0.57)"/><path class="cls-5" d="M67.17,71.45h1.21V69.28H70v2.17h1.44v1.19H70v3.87c0,.16,0,.31,0,.43a.94.94,0,0,0,.1.31.48.48,0,0,0,.23.19,1.17,1.17,0,0,0,.42.06h.34a1.26,1.26,0,0,0,.33,0v1.24l-.51,0a4.53,4.53,0,0,1-.52,0,3.56,3.56,0,0,1-1-.12,1.47,1.47,0,0,1-.6-.35,1.23,1.23,0,0,1-.29-.58,3.75,3.75,0,0,1-.09-.8V72.64H67.17Z" transform="translate(-0.57)"/><path class="cls-5" d="M73.81,75.48a2.86,2.86,0,0,0,.12.82,1.91,1.91,0,0,0,.35.68,1.69,1.69,0,0,0,.61.47,1.91,1.91,0,0,0,.86.18,1.85,1.85,0,0,0,1.13-.31,1.75,1.75,0,0,0,.64-.9H79a3.06,3.06,0,0,1-.43,1,3.1,3.1,0,0,1-.75.78,3.26,3.26,0,0,1-1,.48,4.17,4.17,0,0,1-1.13.16,4,4,0,0,1-1.51-.28,3.08,3.08,0,0,1-1.11-.79,3.37,3.37,0,0,1-.69-1.2,5,5,0,0,1-.23-1.54,4.28,4.28,0,0,1,.25-1.47,3.56,3.56,0,0,1,.7-1.21,3.39,3.39,0,0,1,1.1-.84,3.61,3.61,0,0,1,3,0,3.44,3.44,0,0,1,1.12,1A3.68,3.68,0,0,1,79,73.91a4.13,4.13,0,0,1,.11,1.57Zm3.72-1a2.51,2.51,0,0,0-.16-.72A1.93,1.93,0,0,0,77,73.1a1.71,1.71,0,0,0-1.3-.58,2.06,2.06,0,0,0-.76.14,1.78,1.78,0,0,0-.59.41,2,2,0,0,0-.39.61,2.05,2.05,0,0,0-.16.75Z" transform="translate(-0.57)"/><path class="cls-5" d="M80.34,71.45h1.5v1.4h0a1.74,1.74,0,0,1,.27-.57,2.63,2.63,0,0,1,.49-.51,2.42,2.42,0,0,1,.64-.37,1.78,1.78,0,0,1,.72-.14h.38l.22,0v1.54l-.35,0a1.94,1.94,0,0,0-.34,0,1.82,1.82,0,0,0-1.39.63,2.62,2.62,0,0,0-.42.78,3.46,3.46,0,0,0-.15,1.07v3.44h-1.6Z" transform="translate(-0.57)"/><path class="cls-5" d="M85.52,71.45H87v1.07l0,0a2.7,2.7,0,0,1,1-.94,2.5,2.5,0,0,1,1.3-.34,2.68,2.68,0,0,1,1.87.61,2.36,2.36,0,0,1,.69,1.85v5h-1.6V74.14a2,2,0,0,0-.36-1.24,1.3,1.3,0,0,0-1-.38,1.9,1.9,0,0,0-.73.14,1.68,1.68,0,0,0-.54.41,1.74,1.74,0,0,0-.35.61,2,2,0,0,0-.13.74v4.27h-1.6Z" transform="translate(-0.57)"/><path class="cls-5" d="M94.86,68.44h1.89l-2,2H93.6ZM93.6,78.69V71.45h1.6v7.24Z" transform="translate(-0.57)"/><path class="cls-5" d="M100.83,71.45h1.49v1.4h0a1.74,1.74,0,0,1,.27-.57,2.41,2.41,0,0,1,.5-.51,2.22,2.22,0,0,1,.63-.37,1.81,1.81,0,0,1,.72-.14h.38l.22,0v1.54l-.34,0a2.11,2.11,0,0,0-.35,0,1.79,1.79,0,0,0-.76.16,1.68,1.68,0,0,0-.62.47,2.24,2.24,0,0,0-.42.78,3.17,3.17,0,0,0-.16,1.07v3.44h-1.59Z" transform="translate(-0.57)"/><path class="cls-5" d="M108.82,78.89a4,4,0,0,1-1.55-.29,3.33,3.33,0,0,1-1.14-.79,3.42,3.42,0,0,1-.72-1.21,4.69,4.69,0,0,1-.24-1.54,4.61,4.61,0,0,1,.24-1.52,3.42,3.42,0,0,1,.72-1.21,3.33,3.33,0,0,1,1.14-.79,4.43,4.43,0,0,1,3.1,0,3.47,3.47,0,0,1,1.15.79,3.4,3.4,0,0,1,.71,1.21,4.61,4.61,0,0,1,.24,1.52,4.69,4.69,0,0,1-.24,1.54,3.4,3.4,0,0,1-.71,1.21,3.47,3.47,0,0,1-1.15.79A4,4,0,0,1,108.82,78.89Zm0-1.26a1.86,1.86,0,0,0,.93-.23,1.9,1.9,0,0,0,.64-.59,2.49,2.49,0,0,0,.37-.81,3.73,3.73,0,0,0,.12-.94,3.69,3.69,0,0,0-.12-.92,2.45,2.45,0,0,0-.37-.82,2,2,0,0,0-.64-.58,1.85,1.85,0,0,0-.93-.22,1.82,1.82,0,0,0-.92.22,2,2,0,0,0-.65.58,2.45,2.45,0,0,0-.37.82,3.69,3.69,0,0,0-.12.92,3.73,3.73,0,0,0,.12.94,2.49,2.49,0,0,0,.37.81,1.93,1.93,0,0,0,.65.59A1.82,1.82,0,0,0,108.82,77.63Z" transform="translate(-0.57)"/><path class="cls-5" d="M113.55,71.45h5.88v1.12l-4.14,4.86h4.35v1.26h-6.37V77.57l4-4.86h-3.73Z" transform="translate(-0.57)"/><path class="cls-5" d="M120.8,68.69h1.6V72.4h0a2.28,2.28,0,0,1,.87-.81,2.59,2.59,0,0,1,1.3-.33,2.68,2.68,0,0,1,1.87.61,2.36,2.36,0,0,1,.69,1.85v5h-1.6V74.14a2,2,0,0,0-.36-1.24,1.3,1.3,0,0,0-1-.38,1.9,1.9,0,0,0-.73.14,1.68,1.68,0,0,0-.54.41,1.74,1.74,0,0,0-.35.61,2,2,0,0,0-.13.74v4.27h-1.6Z" transform="translate(-0.57)"/><path class="cls-5" d="M128.84,71.45h1.5v1.4h0a1.42,1.42,0,0,1,.27-.57,2.36,2.36,0,0,1,.49-.51,2.14,2.14,0,0,1,.64-.37,1.76,1.76,0,0,1,.71-.14h.39l.21,0v1.54l-.34,0a2,2,0,0,0-.34,0,1.8,1.8,0,0,0-.77.16,1.76,1.76,0,0,0-.62.47,2.24,2.24,0,0,0-.42.78,3.46,3.46,0,0,0-.15,1.07v3.44h-1.6Z" transform="translate(-0.57)"/><path class="cls-5" d="M139.83,77.08a.83.83,0,0,0,.08.42.33.33,0,0,0,.3.13h.17l.22,0v1.1l-.22.07-.27.06-.28,0-.24,0a1.57,1.57,0,0,1-.81-.2,1,1,0,0,1-.42-.69,2.85,2.85,0,0,1-1.17.68,4.61,4.61,0,0,1-1.34.21,3.17,3.17,0,0,1-.93-.14,2.43,2.43,0,0,1-.79-.39,1.77,1.77,0,0,1-.55-.66,1.93,1.93,0,0,1-.2-.93,2.17,2.17,0,0,1,.24-1.09,1.87,1.87,0,0,1,.65-.66,2.79,2.79,0,0,1,.89-.34c.33-.07.67-.12,1-.16a6.64,6.64,0,0,1,.83-.12,3.29,3.29,0,0,0,.69-.12,1.11,1.11,0,0,0,.48-.26.74.74,0,0,0,.17-.52.88.88,0,0,0-.14-.51,1,1,0,0,0-.37-.3,1.42,1.42,0,0,0-.48-.14l-.51,0a2,2,0,0,0-1.1.28,1.08,1.08,0,0,0-.49.86h-1.6A2.4,2.4,0,0,1,134,72.5a2.21,2.21,0,0,1,.75-.74,2.83,2.83,0,0,1,1-.39,5.66,5.66,0,0,1,1.17-.11,4.57,4.57,0,0,1,1,.11,2.73,2.73,0,0,1,.93.36,2.08,2.08,0,0,1,.67.65,1.79,1.79,0,0,1,.25,1Zm-1.6-2a1.88,1.88,0,0,1-.89.29,9.83,9.83,0,0,0-1.07.15,3.74,3.74,0,0,0-.48.12,1.56,1.56,0,0,0-.43.21.89.89,0,0,0-.28.35,1.17,1.17,0,0,0-.11.52.64.64,0,0,0,.16.45,1.06,1.06,0,0,0,.37.29,1.43,1.43,0,0,0,.47.14,2.9,2.9,0,0,0,.47,0,3.15,3.15,0,0,0,.58-.07,2.09,2.09,0,0,0,.58-.24,1.54,1.54,0,0,0,.45-.43,1.08,1.08,0,0,0,.18-.64Z" transform="translate(-0.57)"/><path class="cls-5" d="M141.55,71.45h1.51v1.07l0,0a2.67,2.67,0,0,1,.95-.94,2.56,2.56,0,0,1,1.31-.34,2.7,2.7,0,0,1,1.87.61,2.36,2.36,0,0,1,.69,1.85v5h-1.6V74.14A2,2,0,0,0,146,72.9a1.33,1.33,0,0,0-1-.38,1.86,1.86,0,0,0-.73.14,1.72,1.72,0,0,0-.55.41,1.91,1.91,0,0,0-.35.61,2.25,2.25,0,0,0-.12.74v4.27h-1.6Z" transform="translate(-0.57)"/><path class="cls-5" d="M150.89,68.44h1.89l-2,2h-1.16Zm-1.26,10.25V71.45h1.6v7.24Z" transform="translate(-0.57)"/><rect class="cls-31" x="72.28" width="57.14" height="57.14" rx="14.17"/><path class="cls-32" d="M92.46,21.57v6.25H103L100.21,25a.75.75,0,0,1,0-1.07.76.76,0,0,1,1.08,0l4,4.09a.77.77,0,0,1,.22.53.72.72,0,0,1-.06.29.63.63,0,0,1-.16.24l-4,4.09a.77.77,0,0,1-1.08,0,.75.75,0,0,1,0-1.07l2.75-2.8H92.46v6.25a2.34,2.34,0,0,0,2.33,2.33h14a2.34,2.34,0,0,0,2.33-2.33v-14a2.35,2.35,0,0,0-2.33-2.34h-14A2.35,2.35,0,0,0,92.46,21.57Zm-4.85,6.25a.76.76,0,0,0,0,1.51h4.85V27.82Z" transform="translate(-0.57)"/><path class="cls-33" d="M280.56,438V451.2a.51.51,0,0,0,.5.5h6.09a.5.5,0,0,0,.5-.5V438a.5.5,0,0,0-.5-.5h-6.09A.5.5,0,0,0,280.56,438Zm8.6-6.57a.5.5,0,0,0-.5.5V451.7h7.59a.5.5,0,0,0,.5-.5V432a.5.5,0,0,0-.5-.5Zm15.19,10.12h-6.08a.5.5,0,0,0-.5.5v9.12a.5.5,0,0,0,.5.5h6.08a.5.5,0,0,0,.5-.5v-9.12a.5.5,0,0,0-.5-.5Z" transform="translate(-0.57)"/></g></g></svg>