<svg xmlns="http://www.w3.org/2000/svg" viewBox="0 0 672.86 220.3"><defs><style>.cls-1{fill:#fff;}</style></defs><title>GolemioWhiteDatový zdroj 2</title><g id="Vrstva_2" data-name="Vrstva 2"><g id="Vrstva_1-2" data-name="Vrstva 1"><path class="cls-1" d="M207,149.91c-10.23,4-18.56,6-25.9,6-18.31,0-30.52-11.79-30.52-29.44,0-17.48,12.37-29.11,31-29.11A86.79,86.79,0,0,1,202.51,100l-2.39,12.37c-8.33-1.4-13.36-2-17.24-2-10.56,0-17.65,6.43-17.65,16.08,0,9.81,6.43,16.41,16,16.41a63.75,63.75,0,0,0,13.86-1.9v-8.08H177.27V121.54H207Z"/><path class="cls-1" d="M296.86,126.66c0,17.57-12.37,29.28-30.1,29.28s-30.1-11.71-30.1-29.28S249,97.38,266.76,97.38s30.1,11.71,30.1,29.28m-14.35,0c0-9.9-6.6-16.41-15.75-16.41S251,116.76,251,126.66s6.6,16.5,15.75,16.5,15.75-6.6,15.75-16.5"/><polygon class="cls-1" points="326.88 154.7 326.88 98.61 340.74 98.61 340.74 142.41 368.28 142.41 368.28 154.7 326.88 154.7"/><polygon class="cls-1" points="436.08 120.72 436.08 132.59 411.25 132.59 411.25 142.57 439.79 142.57 439.79 154.7 397.4 154.7 397.4 98.61 439.79 98.61 439.79 110.74 411.25 110.74 411.25 120.72 436.08 120.72"/><polygon class="cls-1" points="508.57 154.7 498.43 154.7 484.98 127.64 483.25 154.7 469.73 154.7 472.61 98.61 485.07 98.61 503.54 136.55 521.93 98.61 534.3 98.61 537.27 154.7 523.75 154.7 522.01 127.64 508.57 154.7"/><rect class="cls-1" x="568.78" y="98.61" width="13.94" height="56.08"/><path class="cls-1" d="M672.86,126.66c0,17.57-12.37,29.28-30.1,29.28s-30.1-11.71-30.1-29.28S625,97.38,642.76,97.38s30.1,11.71,30.1,29.28m-14.35,0c0-9.9-6.6-16.41-15.75-16.41S627,116.76,627,126.66s6.6,16.5,15.75,16.5,15.75-6.6,15.75-16.5"/><path class="cls-1" d="M163.72,11.44A39.07,39.07,0,0,0,98.1,30,63.39,63.39,0,0,0,10.8,47.54l19.91,8.15c.81-1,1.66-1.91,2.57-2.82a42.51,42.51,0,0,1,60.12,0h0L118,36.57a18.24,18.24,0,1,1,8.8,18.18L103.84,70a42.55,42.55,0,0,1-30.53,54.28v26a25.64,25.64,0,1,1-20,0v-26A42.53,42.53,0,0,1,20.83,82.93a42.85,42.85,0,0,1,1-9.25l-19.46-8a63.42,63.42,0,0,0,30.71,72.88q-1.34,1.15-2.6,2.41a46.47,46.47,0,1,0,63.1-2.41,63.28,63.28,0,0,0,33.08-55.66q0-3-.28-6a39.31,39.31,0,0,0,9.71,1.21,39.05,39.05,0,0,0,27.62-66.67"/><path class="cls-1" d="M172,181.65c0,3.12-2.33,5.09-6,5.09h-1.89v3.7h-3.38V176.76c1.61-.08,3.4-.16,5.27-.16,3.62,0,6,1.85,6,5m-5.75,2.13a2.13,2.13,0,1,0,0-4.22c-.7,0-1.41,0-2.09,0v4.18Z"/><path class="cls-1" d="M199,186.52h-1.43v3.92h-3.38V176.76c1.41-.06,3.62-.12,5.49-.12,3.54,0,5.75,1.69,5.75,4.87a4.6,4.6,0,0,1-2.37,4.14l3.28,4.79h-4l-2.51-3.92Zm.74-2.86a2.11,2.11,0,0,0,2.31-2.11c0-1.37-.93-2-2.45-2l-2,0v4.08Z"/><path class="cls-1" d="M231.2,190.44h-3.7l6.09-13.76h3.16l6.07,13.76h-3.68l-.95-2.25h-6.07Zm2.09-5.13h3.76l-1.89-4.56Z"/><path class="cls-1" d="M277.43,189.27a17.9,17.9,0,0,1-6.31,1.47c-4.46,0-7.44-2.88-7.44-7.18s3-7.1,7.56-7.1a21.18,21.18,0,0,1,5.11.64l-.58,3a26.6,26.6,0,0,0-4.2-.48c-2.57,0-4.3,1.57-4.3,3.92a3.74,3.74,0,0,0,3.9,4,15.64,15.64,0,0,0,3.38-.46v-2h-4.34v-2.77h7.24Z"/><path class="cls-1" d="M313.26,184.26c0,4.06-2.47,6.48-6.42,6.48s-6.37-2.41-6.37-6.48v-7.5h3.42v7.5c0,2.09,1.15,3.3,3,3.3s3-1.21,3-3.3v-7.5h3.42Z"/><polygon class="cls-1" points="345.73 182.15 345.73 185.05 339.67 185.05 339.67 187.48 346.63 187.48 346.63 190.44 336.3 190.44 336.3 176.76 346.63 176.76 346.63 179.72 339.67 179.72 339.67 182.15 345.73 182.15"/><path class="cls-1" d="M405.6,180.2a22.73,22.73,0,0,0-4-.54c-2.88,0-4.44,1.65-4.44,3.9a3.92,3.92,0,0,0,4.26,4,25.86,25.86,0,0,0,4.2-.54l.56,3a20.06,20.06,0,0,1-5,.74c-4.59,0-7.64-2.86-7.64-7.16s3.06-7.12,7.64-7.12a20.2,20.2,0,0,1,5,.66Z"/><rect class="cls-1" x="429" y="176.76" width="3.4" height="13.68"/><polygon class="cls-1" points="462.44 190.44 459.04 190.44 459.04 179.8 454.46 179.8 454.46 176.76 467.02 176.76 467.02 179.8 462.44 179.8 462.44 190.44"/><polygon class="cls-1" points="488.37 176.76 492.18 176.76 495.57 182.51 498.99 176.76 502.79 176.76 497.3 186.12 497.3 190.44 493.88 190.44 493.88 186.12 488.37 176.76"/><path class="cls-1" d="M562.73,183.56a6.71,6.71,0,0,1-7.1,7c-2,0-3.94-.08-5.43-.16V176.76c1.49-.08,3.2-.16,5.09-.16,4.44,0,7.44,2.69,7.44,7m-3.5,0a3.65,3.65,0,0,0-3.8-3.92c-.58,0-1.23,0-1.85,0v7.84c.7,0,1.45,0,2.13,0,2,0,3.52-1.57,3.52-4"/><path class="cls-1" d="M587.27,190.44h-3.7l6.09-13.76h3.16l6.07,13.76h-3.68l-.95-2.25H588.2Zm2.09-5.13h3.76l-1.89-4.56Z"/><polygon class="cls-1" points="626.28 190.44 622.88 190.44 622.88 179.8 618.3 179.8 618.3 176.76 630.87 176.76 630.87 179.8 626.28 179.8 626.28 190.44"/><path class="cls-1" d="M654,190.44h-3.7l6.09-13.76h3.16l6.07,13.76h-3.68l-.95-2.25h-6.07Zm2.09-5.13h3.76l-1.89-4.56Z"/></g></g></svg>