<svg xmlns="http://www.w3.org/2000/svg" xmlns:xlink="http://www.w3.org/1999/xlink" viewBox="0 0 54.11 47.52"><defs><style>.cls-1{opacity:0.8;}.cls-2{fill:url(#Nepojmenovaný_přechod_60);}</style><linearGradient id="Nepojmenovaný_přechod_60" y1="23.76" x2="54.11" y2="23.76" gradientUnits="userSpaceOnUse"><stop offset="0" stop-color="#f20045"/><stop offset="0.3" stop-color="#f32761"/><stop offset="1" stop-color="#f47e9f"/></linearGradient></defs><title>heartDatový zdroj 7</title><g id="Vrstva_2" data-name="Vrstva 2"><g id="Vrstva_3" data-name="Vrstva 3"><g class="cls-1"><path class="cls-2" d="M54.11,14.76v1.88a2,2,0,0,0,0,.24,20.38,20.38,0,0,1-.87,4.71A29.59,29.59,0,0,1,47.26,32a49.72,49.72,0,0,1-8.48,7.79c-3.32,2.42-6.7,4.76-10,7.13a2.62,2.62,0,0,1-3.26,0L21.38,44.1c-2.75-1.91-5.52-3.79-8.12-5.91A47.78,47.78,0,0,1,5.8,30.74a28.05,28.05,0,0,1-4.83-9,18.73,18.73,0,0,1-.3-10.87,15,15,0,0,1,5.24-8A13.44,13.44,0,0,1,16.57.19,14.32,14.32,0,0,1,27,7.21c0,.06.07.11.12.19l.11-.17A14.26,14.26,0,0,1,39.29.07a13,13,0,0,1,8.17,2.26,15.3,15.3,0,0,1,6.48,11C54,13.78,54.05,14.27,54.11,14.76Z"/></g></g></g></svg>