<svg id="Vrstva_1" data-name="Vrstva 1" xmlns="http://www.w3.org/2000/svg" viewBox="0 0 675.22 200.69">
    <title>OICT</title>
    <polygon points="104.17 106.44 104.17 200.69 198.43 200.69 198.43 106.44 104.17 106.44 104.17 106.44"
        style="fill:#fff" />
    <polygon points="0 106.44 0 200.69 94.25 200.69 94.25 106.44 0 106.44 0 106.44" style="fill:#fff" />
    <polygon points="104.17 2.27 104.17 96.52 198.43 96.52 198.43 2.27 104.17 2.27 104.17 2.27" style="fill:#fff" />
    <polygon points="0 2.27 0 96.52 94.25 96.52 94.25 2.27 0 2.27 0 2.27" style="fill:#fff" />
    <path
        d="M43.16,341.48q0-12.32-7.84-20.42T15,313q-12.41,0-20.14,8.1t-7.73,20.42v12.09q0,12.37,7.75,20.44T15,382.09q12.5,0,20.33-8.07t7.82-20.44V341.48ZM29.68,353.63q0,8-3.88,13a12.85,12.85,0,0,1-10.8,5,12.63,12.63,0,0,1-10.66-5q-3.83-5-3.83-13v-12.2q0-7.91,3.78-12.92a12.57,12.57,0,0,1,10.66-5,12.93,12.93,0,0,1,10.8,5q3.92,5,3.92,12.9v12.2Zm95.85-39.69H112.06v67.18h13.47V313.93Z"
        transform="translate(32 -297)" style="fill:#000" />
    <path
        d="M28.85,462.21q0,6.69-3,10.08t-9.34,3.39a12,12,0,0,1-10.11-4.91q-3.74-4.91-3.74-12.61V444.76q0-7.61,3.55-12.52a11.24,11.24,0,0,1,9.6-4.91q6.74,0,9.92,3.53T28.9,441H42l.09-.28q.18-11-6.83-17.42T15.8,416.95q-11.81,0-19.2,7.84t-7.38,20.07V458.2q0,12.27,7.57,20.07t19.7,7.8q12.09,0,18.9-6.37T42,462.49l-.09-.28Zm115.66-44.3H93.11V428.3H112v56.8H125.5V428.3h19V417.92Z"
        transform="translate(32 -297)" style="fill:#000" />
    <path
        d="M234.21,342.08q0-13-7.15-21T207.91,313q-11.81,0-18.83,8.07t-7,21V353q0,13,7,21t18.85,8q12,0,19.13-8t7.13-21V342.08Zm-5.49,11q0,11-5.47,17.68T208,377.38q-9.6,0-15-6.65t-5.38-17.65V342q0-10.91,5.35-17.56t15-6.66q9.78,0,15.3,6.66T228.72,342v11Zm43.14.13q10.57,0,16.36-5.35t5.79-14.3q0-8.86-5.79-14.23t-16.36-5.38H248.74v67.18h5.49V353.2Zm-17.63-34.56h17.63q8.35,0,12.5,4.27a14.76,14.76,0,0,1,4.15,10.73,14.5,14.5,0,0,1-4.18,10.64q-4.18,4.22-12.48,4.22H254.23V318.64ZM345,343.88H312.7V318.64h36.82v-4.71H307.21v67.18h42.54v-4.71H312.7V348.59H345v-4.71Zm40.79,6.88q7.15,0,11.14,3.58a12.44,12.44,0,0,1,4,9.76v6.14a27.61,27.61,0,0,0,.69,6.23,9.21,9.21,0,0,0,2.4,4.66h5.63V380a8.75,8.75,0,0,1-2.45-4.06,19.8,19.8,0,0,1-.74-5.63V364a17.62,17.62,0,0,0-2.75-10.13q-2.75-4-9-5.61a17.52,17.52,0,0,0,8.72-6.16,15.8,15.8,0,0,0,3.09-9.57q0-9.09-5.77-13.82T384.26,314H361.52v67.14H367V350.76ZM367,318.69h17.26q8.44,0,12.62,3.58t4.18,10.22a12.48,12.48,0,0,1-4.2,9.9q-4.2,3.67-13.29,3.67H367V318.69Zm99.85,62.43h5.72l-25.33-67.18H442l-25.52,67.18h5.72l6.92-18.73h30.78l6.92,18.73Zm-22.38-60h.28l13.38,36.36H431l13.47-36.36Zm-2.54-11.81h5l11.49-12-.14-.28h-6.78l-9.55,12.27Z"
        transform="translate(32 -297)" style="fill:#fff" />
    <path
        d="M522,313.93H470.18v4.71H493.3v62.48h5.54V318.64H522v-4.71Zm58.66,28.15q0-13-7.15-21T554.32,313q-11.81,0-18.83,8.07t-7,21V353q0,13,7,21t18.85,8q12,0,19.13-8t7.13-21V342.08Zm-5.49,11q0,11-5.47,17.68t-15.3,6.63q-9.6,0-15-6.65T534,353.07V342q0-10.91,5.35-17.56t15-6.66q9.78,0,15.3,6.66T575.13,342v11Z"
        transform="translate(32 -297)" style="fill:#fff" />
    <path
        d="M619.36,350.76q7.15,0,11.14,3.58a12.44,12.44,0,0,1,4,9.76v6.14a27.61,27.61,0,0,0,.69,6.23,9.21,9.21,0,0,0,2.4,4.66h5.63V380a8.75,8.75,0,0,1-2.45-4.06,19.8,19.8,0,0,1-.74-5.63V364a17.62,17.62,0,0,0-2.75-10.13q-2.75-4-9-5.61A17.52,17.52,0,0,0,637,342.1a15.8,15.8,0,0,0,3.09-9.57q0-9.09-5.77-13.82T617.79,314H595v67.14h5.49V350.76Zm-18.83-32.07h17.26q8.44,0,12.62,3.58t4.18,10.22a12.48,12.48,0,0,1-4.2,9.9Q626.19,346,617.1,346H600.54V318.69Z"
        transform="translate(32 -297)" style="fill:#fff" />
    <path
        d="M191.9,417.92h-5.54V485.1h5.54V417.92Zm59.94,46.19q-1.06,8.61-5.72,12.93T233,481.36a17.07,17.07,0,0,1-14.14-6.8q-5.33-6.8-5.33-17.59V446q0-10.65,5.33-17.47A17.05,17.05,0,0,1,233,421.65q8.49,0,13.13,4.43t5.74,12.78H257l.09-.28q-.88-10.29-7.15-16t-17-5.68q-11.21,0-18.09,8.14t-6.88,21V457q0,12.87,6.88,21t18.09,8.1q10.61,0,16.93-5.79t7.2-15.9l-.09-.28Z"
        transform="translate(32 -297)" style="fill:#fff" />
    <polygon
        points="347 120.92 295.23 120.92 295.23 125.62 318.35 125.62 318.35 188.1 323.89 188.1 323.89 125.62 347 125.62 347 120.92 347 120.92"
        style="fill:#fff" />
</svg>