<svg xmlns="http://www.w3.org/2000/svg" viewBox="0 0 150.58 184.23"><defs><style>.cls-1{fill:#ffffff;}</style></defs><title>SmartPrague_greyDatový zdroj 4</title><g id="Vrstva_2" data-name="Vrstva 2"><g id="Vrstva_1-2" data-name="Vrstva 1"><polygon class="cls-1" points="0 151.75 0 143.63 0 104.66 6.63 101.19 6.63 151.75 0 151.75"/><polygon class="cls-1" points="9.34 151.75 9.34 99.42 15.63 95.97 15.63 151.75 9.34 151.75"/><polygon class="cls-1" points="24.15 151.75 24.29 91.47 18.56 94.47 18.56 151.75 24.15 151.75"/><polygon class="cls-1" points="27.21 93.26 27.21 50.12 33.36 46.53 33.36 98.21 27.21 93.26"/><polygon class="cls-1" points="36.16 100.46 36.16 45.13 42.3 41.53 42.3 105.4 36.16 100.46"/><polygon class="cls-1" points="44.92 151.75 44.92 39.93 51.44 36.73 51.44 151.75 44.92 151.75"/><polygon class="cls-1" points="54.05 151.75 54.05 79.49 59.82 82.29 59.82 151.75 54.05 151.75"/><polygon class="cls-1" points="67.83 151.75 67.83 86.89 62.43 84.09 62.43 151.75 67.83 151.75"/><polygon class="cls-1" points="77.15 151.75 77.15 0 83.49 3.2 83.49 151.75 77.15 151.75"/><polygon class="cls-1" points="92.25 151.75 92.25 7.19 86.47 4.59 86.47 151.75 92.25 151.75"/><polygon class="cls-1" points="94.86 76.04 94.86 8.39 101.01 11.99 101.01 72.24 94.86 76.04"/><polygon class="cls-1" points="103.62 12.99 109.95 16.59 109.95 67.64 103.62 71.04 103.62 12.99"/><polygon class="cls-1" points="112.75 65.85 112.75 17.58 118.71 20.78 118.71 62.85 112.75 65.85"/><path class="cls-1" d="M125.16,65.84a3.7,3.7,0,1,0,3.45,3.7,3.58,3.58,0,0,0-3.45-3.7m0,1.89a1.81,1.81,0,1,1-1.68,1.81,1.75,1.75,0,0,1,1.68-1.81"/><path class="cls-1" d="M128.61,77.39a3.46,3.46,0,1,1-3.45-3.69,3.58,3.58,0,0,1,3.45,3.69"/><path class="cls-1" d="M135.94,77.39a3.46,3.46,0,1,1-3.45-3.69,3.58,3.58,0,0,1,3.45,3.69"/><path class="cls-1" d="M143.26,77.39a3.46,3.46,0,1,1-3.45-3.69,3.58,3.58,0,0,1,3.45,3.69"/><path class="cls-1" d="M125.16,81.55a3.7,3.7,0,1,0,3.45,3.7,3.58,3.58,0,0,0-3.45-3.7m0,1.89a1.81,1.81,0,1,1-1.68,1.81,1.75,1.75,0,0,1,1.68-1.81"/><path class="cls-1" d="M132.49,81.55a3.7,3.7,0,1,0,3.45,3.7,3.58,3.58,0,0,0-3.45-3.7m0,1.89a1.81,1.81,0,1,1-1.68,1.81,1.75,1.75,0,0,1,1.68-1.81"/><path class="cls-1" d="M143.26,85.24a3.46,3.46,0,1,1-3.45-3.7,3.58,3.58,0,0,1,3.45,3.7"/><path class="cls-1" d="M150.58,85.24a3.46,3.46,0,1,1-3.45-3.7,3.58,3.58,0,0,1,3.45,3.7"/><path class="cls-1" d="M125.16,89.4a3.7,3.7,0,1,0,3.45,3.7,3.58,3.58,0,0,0-3.45-3.7m0,1.89a1.81,1.81,0,1,1-1.68,1.81,1.75,1.75,0,0,1,1.68-1.81"/><path class="cls-1" d="M135.94,93.1a3.46,3.46,0,1,1-3.45-3.69,3.58,3.58,0,0,1,3.45,3.69"/><path class="cls-1" d="M143.26,93.1a3.46,3.46,0,1,1-3.45-3.69,3.58,3.58,0,0,1,3.45,3.69"/><path class="cls-1" d="M147.13,89.4a3.7,3.7,0,1,0,3.45,3.7,3.58,3.58,0,0,0-3.45-3.7m0,1.89a1.81,1.81,0,1,1-1.68,1.81,1.75,1.75,0,0,1,1.68-1.81"/><path class="cls-1" d="M128.61,100.95a3.46,3.46,0,1,1-3.45-3.7,3.58,3.58,0,0,1,3.45,3.7"/><path class="cls-1" d="M135.94,100.95a3.46,3.46,0,1,1-3.45-3.7,3.58,3.58,0,0,1,3.45,3.7"/><path class="cls-1" d="M139.81,97.25a3.7,3.7,0,1,0,3.45,3.7,3.58,3.58,0,0,0-3.45-3.7m0,1.89a1.81,1.81,0,1,1-1.68,1.81,1.75,1.75,0,0,1,1.68-1.81"/><path class="cls-1" d="M150.58,100.95a3.46,3.46,0,1,1-3.45-3.7,3.58,3.58,0,0,1,3.45,3.7"/><path class="cls-1" d="M125.16,105.1a3.7,3.7,0,1,0,3.45,3.7,3.58,3.58,0,0,0-3.45-3.7m0,1.89a1.81,1.81,0,1,1-1.68,1.81,1.75,1.75,0,0,1,1.68-1.81"/><path class="cls-1" d="M135.94,108.8a3.46,3.46,0,1,1-3.45-3.69,3.58,3.58,0,0,1,3.45,3.69"/><path class="cls-1" d="M143.26,108.8a3.46,3.46,0,1,1-3.45-3.69,3.58,3.58,0,0,1,3.45,3.69"/><path class="cls-1" d="M147.13,105.1a3.7,3.7,0,1,0,3.45,3.7,3.58,3.58,0,0,0-3.45-3.7m0,1.89a1.81,1.81,0,1,1-1.68,1.81,1.75,1.75,0,0,1,1.68-1.81"/><path class="cls-1" d="M125.16,113a3.7,3.7,0,1,0,3.45,3.7,3.58,3.58,0,0,0-3.45-3.7m0,1.89a1.81,1.81,0,1,1-1.68,1.81,1.75,1.75,0,0,1,1.68-1.81"/><path class="cls-1" d="M132.49,113a3.7,3.7,0,1,0,3.45,3.7,3.58,3.58,0,0,0-3.45-3.7m0,1.89a1.81,1.81,0,1,1-1.68,1.81,1.75,1.75,0,0,1,1.68-1.81"/><path class="cls-1" d="M139.81,113a3.7,3.7,0,1,0,3.45,3.7,3.58,3.58,0,0,0-3.45-3.7m0,1.89a1.81,1.81,0,1,1-1.68,1.81,1.75,1.75,0,0,1,1.68-1.81"/><path class="cls-1" d="M150.58,116.65a3.46,3.46,0,1,1-3.45-3.69,3.58,3.58,0,0,1,3.45,3.69"/><path class="cls-1" d="M125.16,120.8a3.7,3.7,0,1,0,3.45,3.7,3.58,3.58,0,0,0-3.45-3.7m0,1.89a1.81,1.81,0,1,1-1.68,1.81,1.75,1.75,0,0,1,1.68-1.81"/><path class="cls-1" d="M135.94,124.5a3.46,3.46,0,1,1-3.45-3.7,3.58,3.58,0,0,1,3.45,3.7"/><path class="cls-1" d="M143.26,124.5a3.46,3.46,0,1,1-3.45-3.7,3.58,3.58,0,0,1,3.45,3.7"/><path class="cls-1" d="M150.58,124.5a3.46,3.46,0,1,1-3.45-3.7,3.58,3.58,0,0,1,3.45,3.7"/><path class="cls-1" d="M125.16,128.66a3.7,3.7,0,1,0,3.45,3.7,3.58,3.58,0,0,0-3.45-3.7m0,1.89a1.81,1.81,0,1,1-1.68,1.81,1.75,1.75,0,0,1,1.68-1.81"/><path class="cls-1" d="M132.49,128.66a3.7,3.7,0,1,0,3.45,3.7,3.58,3.58,0,0,0-3.45-3.7m0,1.89a1.81,1.81,0,1,1-1.68,1.81,1.75,1.75,0,0,1,1.68-1.81"/><path class="cls-1" d="M143.26,132.35a3.46,3.46,0,1,1-3.45-3.69,3.58,3.58,0,0,1,3.45,3.69"/><path class="cls-1" d="M147.13,128.66a3.7,3.7,0,1,0,3.45,3.7,3.58,3.58,0,0,0-3.45-3.7m0,1.89a1.81,1.81,0,1,1-1.68,1.81,1.75,1.75,0,0,1,1.68-1.81"/><path class="cls-1" d="M125.16,136.51a3.7,3.7,0,1,0,3.45,3.7,3.58,3.58,0,0,0-3.45-3.7m0,1.89a1.81,1.81,0,1,1-1.68,1.81,1.75,1.75,0,0,1,1.68-1.81"/><path class="cls-1" d="M135.94,140.2a3.46,3.46,0,1,1-3.45-3.69,3.57,3.57,0,0,1,3.45,3.69"/><path class="cls-1" d="M143.26,140.2a3.46,3.46,0,1,1-3.45-3.69,3.57,3.57,0,0,1,3.45,3.69"/><path class="cls-1" d="M150.58,140.2a3.46,3.46,0,1,1-3.45-3.69,3.57,3.57,0,0,1,3.45,3.69"/><path class="cls-1" d="M125.16,144.36a3.7,3.7,0,1,0,3.45,3.7,3.58,3.58,0,0,0-3.45-3.7m0,1.89a1.81,1.81,0,1,1-1.68,1.81,1.75,1.75,0,0,1,1.68-1.81"/><path class="cls-1" d="M135.94,148.06a3.46,3.46,0,1,1-3.45-3.7,3.58,3.58,0,0,1,3.45,3.7"/><path class="cls-1" d="M139.81,144.36a3.7,3.7,0,1,0,3.45,3.7,3.58,3.58,0,0,0-3.45-3.7m0,1.89a1.81,1.81,0,1,1-1.68,1.81,1.75,1.75,0,0,1,1.68-1.81"/><path class="cls-1" d="M147.13,144.36a3.7,3.7,0,1,0,3.45,3.7,3.58,3.58,0,0,0-3.45-3.7m0,1.89a1.81,1.81,0,1,1-1.68,1.81,1.75,1.75,0,0,1,1.68-1.81"/><path class="cls-1" d="M2.84,180.5a.3.3,0,0,0,.09.21l.53.42a.27.27,0,0,0,.15,0H5.83a.27.27,0,0,0,.15,0l.53-.42a.3.3,0,0,0,.09-.21v-2.31a.24.24,0,0,0-.09-.21L6,177.56a.18.18,0,0,0-.15-.07H2.57L0,175.39v-5.57l2.57-2.1H6.86l2.57,2.1v3H6.6v-1.34a.24.24,0,0,0-.09-.21L6,170.81a.27.27,0,0,0-.15,0H3.61a.27.27,0,0,0-.15,0l-.53.42a.24.24,0,0,0-.09.21v2.31a.23.23,0,0,0,.09.21l.53.43a.19.19,0,0,0,.15.07H6.86l2.57,2.1v5.57l-2.57,2.1H2.57L0,182.13v-3H2.84Z"/><path class="cls-1" d="M15.58,168.92a.23.23,0,0,0,0,.12l3.06,7.17a.24.24,0,0,0,.22.17.22.22,0,0,0,.2-.17L22.16,169s0-.07,0-.12v-1.21H25v16.51H22.18v-6.79a.24.24,0,0,0-.2-.23.22.22,0,0,0-.26.14l-1.41,3.3a.15.15,0,0,0,0,.1v3.49H17.45v-3.49a.15.15,0,0,0,0-.1L16,177.34a.22.22,0,0,0-.26-.14.22.22,0,0,0-.18.23v6.79H12.74V167.72h2.84Z"/><path class="cls-1" d="M33.42,171.73a.24.24,0,0,0-.24.19l-1.27,5.36a.41.41,0,0,0,0,.23.27.27,0,0,0,.2.1H34.7a.28.28,0,0,0,.18-.1.29.29,0,0,0,0-.23l-1.28-5.36a.22.22,0,0,0-.22-.19m2.27,9.15a.22.22,0,0,0-.22-.24H31.38a.23.23,0,0,0-.24.24v3.35H28.3v-4l3-12.48h4.32l2.95,12.48v4H35.69Z"/><path class="cls-1" d="M44.91,175h3c.07,0,.11,0,.16,0l.68-.61a.22.22,0,0,0,.09-.19v-2.5a.22.22,0,0,0-.09-.19l-.68-.61a.28.28,0,0,0-.16,0h-3a.25.25,0,0,0-.24.26v3.7a.25.25,0,0,0,.24.24m2.22,3.23a.26.26,0,0,0-.24-.19h-2a.25.25,0,0,0-.24.26v6H41.83V167.72H49l2.66,2.36v5.56L50,177.18a.23.23,0,0,0-.06.26l1.89,6.79h-3Z"/><path class="cls-1" d="M58.38,171a.25.25,0,0,0-.24-.26H55.08v-3h9.44v3H61.46a.25.25,0,0,0-.24.26v13.21H58.38Z"/><path class="cls-1" d="M78.6,175h3a.17.17,0,0,0,.15,0l.68-.61a.22.22,0,0,0,.09-.19v-2.5a.22.22,0,0,0-.09-.19l-.68-.61a.31.31,0,0,0-.15,0h-3a.25.25,0,0,0-.24.26v3.7a.25.25,0,0,0,.24.24m0,3a.25.25,0,0,0-.24.26v6H75.52V167.72h7.17l2.67,2.36v5.57L82.69,178Z"/><path class="cls-1" d="M91.74,175h3c.07,0,.11,0,.16,0l.68-.61a.22.22,0,0,0,.09-.19v-2.5a.22.22,0,0,0-.09-.19l-.68-.61a.28.28,0,0,0-.16,0h-3a.25.25,0,0,0-.24.26v3.7a.25.25,0,0,0,.24.24M94,178.19a.26.26,0,0,0-.24-.19h-2a.25.25,0,0,0-.24.26v6H88.66V167.72h7.17l2.66,2.36v5.56l-1.71,1.53a.23.23,0,0,0-.06.26l1.89,6.79h-3Z"/><path class="cls-1" d="M107,171.73a.24.24,0,0,0-.24.19l-1.27,5.36a.41.41,0,0,0,0,.23.27.27,0,0,0,.2.1h2.55a.26.26,0,0,0,.17-.1.28.28,0,0,0,0-.23l-1.28-5.36a.22.22,0,0,0-.22-.19m2.27,9.15a.22.22,0,0,0-.22-.24H105a.23.23,0,0,0-.24.24v3.35h-2.84v-4l3-12.48h4.31l3,12.48v4H109.3Z"/><path class="cls-1" d="M122.55,171.54a.25.25,0,0,0-.11-.19l-.64-.54a.28.28,0,0,0-.16,0h-2.48a.28.28,0,0,0-.16,0l-.64.54a.23.23,0,0,0-.09.19v8.87a.22.22,0,0,0,.09.19l.64.54a.31.31,0,0,0,.16,0h2.48a.32.32,0,0,0,.16,0l.64-.54a.24.24,0,0,0,.11-.19V179a.25.25,0,0,0-.24-.24h-1.83v-3h4.91V182l-2.7,2.22h-4.56L115.44,182V169.94l2.68-2.22h4.56l2.7,2.22V173h-2.84Z"/><path class="cls-1" d="M131.53,180.41a.23.23,0,0,0,.09.19l.66.54a.28.28,0,0,0,.13,0h2.51a.26.26,0,0,0,.13,0l.66-.54a.31.31,0,0,0,.09-.19V167.72h2.84V182l-2.68,2.22h-4.58L128.69,182V167.72h2.84Z"/><path class="cls-1" d="M145,170.76a.25.25,0,0,0-.24.26v3.7a.23.23,0,0,0,.24.24h3.06v3H145a.26.26,0,0,0-.24.26V181a.25.25,0,0,0,.24.26h5.57v3h-8.65V167.72h8.65v3Z"/></g></g></svg>